<?xml version="1.0" encoding="UTF-8"?><svg id="_編集モード" xmlns="http://www.w3.org/2000/svg" viewBox="0 0 566.93 130.21"><defs><style>.cls-1{fill:#fff;}</style></defs><g><circle class="cls-1" cx="80.98" cy="87.75" r="11.32"/><path class="cls-1" d="M158.35,66.8c0,16.26-13.18,29.44-29.44,29.44s-29.44-13.18-29.44-29.44V33.97s18.12,0,18.12,0v32.84c0,6.25,5.07,11.32,11.32,11.32s11.32-5.07,11.32-11.32V33.97s18.12,0,18.12,0v32.84Z"/><path class="cls-1" d="M40.76,33.97v32.84c0,6.25-5.07,11.32-11.32,11.32s-11.32-5.07-11.32-11.32V33.97H0v32.84c0,16.26,13.18,29.44,29.44,29.44,4.01,0,7.84-.81,11.32-2.26v6.79c0,6.25-5.07,11.32-11.32,11.32s-11.32-5.07-11.32-11.32H0C0,117.03,13.18,130.21,29.44,130.21s29.44-13.18,29.44-29.44V33.97h-18.12Z"/></g><g><path class="cls-1" d="M334.08,33.97c-17.2,0-31.14,13.94-31.14,31.14s13.94,31.14,31.14,31.14,31.14-13.94,31.14-31.14-13.94-31.14-31.14-31.14Zm0,44.16c-7.19,0-13.02-5.83-13.02-13.02s5.83-13.02,13.02-13.02,13.02,5.83,13.02,13.02-5.83,13.02-13.02,13.02Z"/><path class="cls-1" d="M454.63,22.65c6.25,0,11.32-5.07,11.32-11.32s-5.07-11.32-11.32-11.32-11.32,5.07-11.32,11.32,5.07,11.32,11.32,11.32Zm-9.06,73.6h18.12V33.97h-18.12v62.27Z"/><path class="cls-1" d="M405.71,33.97c-4.65,0-9.06,1.03-13.02,2.85V0h-18.12V65.1c0,17.2,13.94,31.14,31.14,31.14s31.14-13.94,31.14-31.14-13.94-31.14-31.14-31.14Zm0,44.16c-7.19,0-13.02-5.83-13.02-13.02h0c0-7.19,5.83-13.02,13.02-13.02s13.02,5.83,13.02,13.02-5.83,13.02-13.02,13.02Z"/><rect class="cls-1" x="476.52" y="0" width="18.12" height="96.24"/><path class="cls-1" d="M264.14,33.97c-7.91,0-15.09,3.13-20.38,8.21-5.29-5.08-12.47-8.21-20.38-8.21-16.26,0-29.44,13.18-29.44,29.44v32.84h18.12V63.41c0-6.25,5.07-11.32,11.32-11.32s11.32,5.07,11.32,11.32v32.84h18.12V63.41c0-6.25,5.07-11.32,11.32-11.32s11.32,5.07,11.32,11.32v32.84h18.12V63.41c0-16.26-13.18-29.44-29.44-29.44Z"/><path class="cls-1" d="M566.41,70.77c.34-1.84,.52-3.73,.52-5.66,0-17.2-13.94-31.14-31.14-31.14s-31.14,13.94-31.14,31.14,13.94,31.14,31.14,31.14c13.63,0,25.2-8.76,29.42-20.95h-21.33c-2.22,1.77-5.03,2.83-8.09,2.83-5.16,0-9.62-3-11.73-7.36h42.34Zm-30.61-18.68c5.16,0,9.62,3,11.73,7.36h-23.46c2.11-4.36,6.57-7.36,11.73-7.36Z"/></g></svg>
