<?xml version="1.0" encoding="UTF-8"?><svg id="_レイヤー_1" xmlns="http://www.w3.org/2000/svg" viewBox="0 0 1247.45 420.09"><defs><style>.cls-1{fill:#fff;}</style></defs><g><path class="cls-1" d="M0,415.61l8.79-29.14h1.56c2.01,8.65,5.4,15.24,10.18,19.79,4.78,4.55,10.66,6.83,17.65,6.83,10.28,0,17.49-4.72,21.62-14.17,4.13-9.45,6.2-27.06,6.2-52.84v-63.22c0-5.58-1.14-9.77-3.43-12.56-2.29-2.79-6.32-4.88-12.11-6.25v-1.84c4.5,.31,8.92,.54,13.25,.69,4.34,.16,8.56,.23,12.65,.23,2.97,0,6.15-.06,9.52-.17,3.37-.11,8.43-.36,15.18-.75v1.84c-4.9,1-8.41,2.95-10.54,5.85-2.13,2.91-3.19,7.23-3.19,12.97v69.53c0,12.24-1.13,21.92-3.37,29.03-2.25,7.11-5.99,13.5-11.21,19.16-5.94,6.5-12.73,11.38-20.36,14.63-7.63,3.25-16.07,4.88-25.3,4.88-4.02,0-8.25-.36-12.71-1.09-4.46-.73-9.26-1.86-14.4-3.39Z"/><path class="cls-1" d="M123.78,264.04v-1.84h1.45c10.6,.62,18.35,.92,23.25,.92,4.1,0,10.84-.23,20.24-.69,1.93-.15,3.33-.23,4.22-.23v1.84c-4.98,1-8.57,2.97-10.78,5.91-2.21,2.95-3.31,7.25-3.31,12.92v51.67c0,12.78,.36,23.21,1.08,31.29,.73,8.08,1.85,14.22,3.37,18.43,3.14,9.03,9.1,16.02,17.89,20.96,8.79,4.94,19.7,7.4,32.71,7.4,19.68,0,34.33-4.75,43.97-14.24,9.64-9.49,14.46-23.92,14.46-43.29v-24c0-26.41-1.49-43.35-4.45-50.81-2.97-7.46-8.4-12.88-16.26-16.25v-1.84c4.49,.31,8.65,.54,12.47,.69,3.81,.16,7.25,.23,10.3,.23,4.82,0,9.35-.07,13.61-.23,4.26-.15,8.36-.38,12.29-.69v1.84c-8.27,3.29-13.97,9.26-17.11,17.92-3.13,8.65-4.7,25.03-4.7,49.14v22.73c0,22.08-5.56,38.57-16.69,49.46-11.13,10.89-28.01,16.33-50.66,16.33-13.09,0-24.56-1.36-34.4-4.07-9.84-2.71-17.77-6.67-23.79-11.87-5.62-4.89-9.62-11.03-11.99-18.41-2.37-7.38-3.56-18.94-3.56-34.7,0-3.21,.08-9.39,.24-18.53,.16-9.14,.24-16.69,.24-22.65v-26.53c0-5.36-1.11-9.51-3.32-12.46-2.21-2.95-5.8-5.07-10.78-6.37Z"/><path class="cls-1" d="M307.56,415.38v-1.84c7.95-1.92,13.51-7.42,16.69-16.51,3.17-9.09,4.76-26.15,4.76-51.16v-52.14c0-10.43-1.2-17.42-3.61-20.94-2.41-3.53-6.71-6.37-12.89-8.52v-1.84c2.97,0,6.47,.08,10.48,.23,4.02,.16,6.63,.23,7.83,.23,1.36,0,4.49-.07,9.4-.23,3.53-.07,6.38-.15,8.56-.23,22.81,25.4,42.99,47.09,60.54,65.08,17.55,17.99,34.8,34.62,51.74,49.89v-52.02c0-22.64-1.49-37.71-4.45-45.23-2.98-7.52-8.4-13.04-16.26-16.57v-1.61c.96,0,2.41,.08,4.34,.23,8.68,.46,14.7,.69,18.07,.69,5.46,0,13.85-.3,25.18-.92h.84v1.61c-8.19,3.07-13.83,8.75-16.92,17.03-3.09,8.29-4.64,25.01-4.64,50.18v89.06h-2.17c-22.73-27.16-58.23-65.71-106.5-115.65-10.36-10.74-18.11-18.79-23.25-24.16v58.93c0,30.61,1.54,50.14,4.64,58.58,3.09,8.44,8.53,13.77,16.32,16v1.84h-48.67Z"/><path class="cls-1" d="M501.09,416.07l-.12-1.84c6.43-1.61,10.78-5.09,13.07-10.44,2.29-5.35,3.43-19.12,3.43-41.3v-79.79c0-5.68-1.02-9.9-3.07-12.67-2.05-2.76-5.6-4.84-10.66-6.22v-1.84c6.51,.39,11.49,.63,14.94,.75,3.45,.11,6.58,.17,9.4,.17,4.98,0,12.53-.27,22.65-.8,.96-.07,1.64-.12,2.05-.12v1.84c-4.82,.92-8.38,2.88-10.66,5.87-2.29,3-3.43,7.33-3.43,13.01v55.35l40.24-32.21c12.13-9.75,20.6-17.25,25.42-22.51,4.82-5.26,7.23-9.57,7.23-12.95,0-1.92-.52-3.32-1.57-4.2-1.05-.88-3.01-1.59-5.9-2.13v-1.84c5.14,.23,9.78,.4,13.92,.52,4.13,.11,7.81,.17,11.02,.17,3.53,0,7.35-.06,11.44-.17,4.1-.12,8.51-.29,13.25-.52v1.84c-5.78,2.15-13.19,6.04-22.23,11.69-9.04,5.64-19.66,13.07-31.87,22.28l-43.37,33.04c14.46,.31,26.02,2.41,34.7,6.31,8.67,3.9,16.42,10.48,23.25,19.74,3.13,4.21,7.51,10.48,13.13,18.82,13.81,20.42,25.22,33.04,34.21,37.86v1.84c-3.37-.08-6.66-.14-9.88-.17-3.21-.04-6.74-.06-10.6-.06-4.34,0-7.57,.02-9.7,.06-2.13,.04-4.04,.09-5.72,.17-6.83-9.02-15.38-21.11-25.66-36.26-18.8-27.84-33.45-41.76-43.97-41.76-5.47,0-9.72,1.63-12.77,4.88-3.05,3.25-4.58,7.82-4.58,13.71v11.24c0,17.98,1.18,29.83,3.55,35.57,2.37,5.74,6.89,9.49,13.56,11.24l-.12,1.84c-4.5-.23-8.95-.4-13.37-.52-4.42-.11-9.56-.17-15.42-.17-3.78,0-7.81,.06-12.11,.17-4.3,.12-8.86,.29-13.67,.52Z"/><path class="cls-1" d="M676.06,264.04v-1.84h1.45c10.6,.62,18.35,.92,23.25,.92,4.1,0,10.84-.23,20.24-.69,1.93-.15,3.33-.23,4.21-.23v1.84c-4.98,1-8.57,2.97-10.78,5.91-2.2,2.95-3.31,7.25-3.31,12.92v51.67c0,12.78,.36,23.21,1.08,31.29,.73,8.08,1.85,14.22,3.38,18.43,3.13,9.03,9.1,16.02,17.89,20.96,8.79,4.94,19.69,7.4,32.71,7.4,19.68,0,34.34-4.75,43.98-14.24,9.64-9.49,14.46-23.92,14.46-43.29v-24c0-26.41-1.49-43.35-4.46-50.81-2.97-7.46-8.39-12.88-16.27-16.25v-1.84c4.5,.31,8.65,.54,12.47,.69,3.81,.16,7.25,.23,10.3,.23,4.82,0,9.35-.07,13.61-.23,4.25-.15,8.35-.38,12.28-.69v1.84c-8.27,3.29-13.97,9.26-17.1,17.92-3.14,8.65-4.7,25.03-4.7,49.14v22.73c0,22.08-5.56,38.57-16.69,49.46-11.12,10.89-28,16.33-50.66,16.33-13.1,0-24.55-1.36-34.4-4.07-9.84-2.71-17.77-6.67-23.79-11.87-5.62-4.89-9.62-11.03-11.98-18.41-2.38-7.38-3.56-18.94-3.56-34.7,0-3.21,.08-9.39,.24-18.53,.16-9.14,.24-16.69,.24-22.65v-26.53c0-5.36-1.1-9.51-3.31-12.46-2.21-2.95-5.8-5.07-10.79-6.37Z"/><path class="cls-1" d="M864.18,416.07l-.12-1.84c6.42-1.6,10.78-5.04,13.07-10.31,2.29-5.27,3.43-18.1,3.43-38.49v-80.99c0-6.34-1.02-10.98-3.07-13.92-2.05-2.94-5.52-4.79-10.42-5.56v-1.84h33.01c4.26,0,10.48-.04,18.68-.11,8.19-.07,14.21-.11,18.07-.11,17.51,0,31.64,1.2,42.4,3.61,10.76,2.41,20.32,6.36,28.68,11.85,10.11,6.57,17.78,14.74,23,24.52,5.22,9.77,7.83,20.85,7.83,33.22s-2.21,22.73-6.63,32.88c-4.42,10.15-10.76,18.9-19.03,26.23-8.43,7.48-18.29,12.91-29.58,16.27-11.29,3.36-25.52,5.04-42.71,5.04-4.34,0-11.41-.19-21.2-.57-9.8-.39-17.39-.57-22.77-.57-7.71,0-13.97,.06-18.79,.17-4.82,.12-9.44,.29-13.85,.52Zm37.58-146.86v93.36c0,9.24,.18,16.88,.54,22.91,.36,6.04,.86,10.2,1.51,12.49,1.2,4.97,4.06,8.4,8.56,10.31,4.49,1.91,13.25,2.86,26.26,2.86,23.86,0,42.23-6.3,55.11-18.9,12.89-12.6,19.34-30.54,19.34-53.84,0-24.43-6.51-42.23-19.52-53.38-13.01-11.15-33.89-16.72-62.65-16.72-5.38,0-10.48,.08-15.3,.23-4.82,.15-9.43,.38-13.85,.69Z"/><path class="cls-1" d="M1068.55,338.74c0-23.18,8.38-42.32,25.12-57.43,16.74-15.1,38.05-22.66,63.91-22.66s47.61,7.61,64.51,22.83c16.91,15.22,25.36,34.31,25.36,57.25s-8.59,42.01-25.78,57.66c-17.19,15.65-38.35,23.46-63.49,23.46s-47.27-7.7-64.21-23.12c-16.95-15.41-25.42-34.74-25.42-58Zm25.66,.23c0,23.71,5.68,42.3,17.05,55.76,11.37,13.47,27,20.19,46.93,20.19s34.8-6.79,46.32-20.37c11.52-13.58,17.28-32.03,17.28-55.36s-5.66-42.24-16.98-55.59c-11.33-13.35-26.99-20.02-46.99-20.02s-35.9,6.56-46.98,19.68c-11.09,13.12-16.63,31.69-16.63,55.7Z"/></g><g><path class="cls-1" d="M516.87,174.62h52.04l-40.84-67.1c20.15-9.44,33.97-28.51,33.97-50.55C562.04,25.56,534.04,.1,499.52,.1l-82.46-.05V174.62h44.39v-60.78h18.46l36.97,60.78Zm-55.43-136.81h31.14c10.03,0,18.16,8.56,18.16,19.12s-8.13,19.13-18.16,19.13h-31.14V37.81Z"/><path class="cls-1" d="M358.91,174.56h41.15L347.27,.06h-54.55l-52.79,174.5h40.9l10.63-35.13h56.82l10.63,35.13Zm-55.95-73.23l17.04-49.57,16.88,49.57h-33.92Z"/><polygon class="cls-1" points="164.35 .06 123.7 88.21 83.06 .06 25.86 .06 25.86 174.62 70.26 174.62 70.26 78.31 114.64 174.56 132.77 174.56 177.15 78.31 177.15 174.62 221.55 174.62 221.55 .06 164.35 .06"/><path class="cls-1" d="M723.36,.06h-44.52V128.9c0,7.69-7.28,14.53-23.05,14.53s-26.79-6.84-26.79-14.53V.06h-44.05s.02,128.37,.02,128.83c0,40.83,49.55,53.13,70.82,53.13s67.51-12.3,67.51-53.12c.27-.84,.06-128.84,.06-128.84Z"/><g><polygon class="cls-1" points="1169.5 .06 1169.5 88.8 1116.29 0 1064.57 .05 1064.59 .06 1064.56 .06 1064.56 174.62 1108.96 174.62 1108.96 74.11 1169.14 174.56 1169.5 174.56 1169.5 174.62 1213.89 174.62 1213.89 .06 1169.5 .06"/><polygon class="cls-1" points="889.95 44.45 889.95 44.28 889.97 44.28 889.95 44.26 889.95 .06 750.53 .06 750.53 44.45 829.44 44.45 750.42 130.19 750.53 130.29 750.53 174.67 889.95 174.67 889.95 130.27 810.72 130.27 889.8 44.45 889.95 44.45"/><polygon class="cls-1" points="1042.06 44.45 1042.06 .06 956.77 .06 912.37 .06 912.23 .06 912.23 174.67 1042.06 174.67 1042.06 130.28 956.77 130.28 956.77 104.65 1033.24 104.65 1033.24 66.61 956.77 66.61 956.77 44.45 1042.06 44.45"/></g></g></svg>
