<!-- Generator: Adobe Illustrator 25.2.1, SVG Export Plug-In  -->
<svg version="1.1" xmlns="http://www.w3.org/2000/svg" xmlns:xlink="http://www.w3.org/1999/xlink" x="0px" y="0px"
	 width="275.18px" height="104.1px" viewBox="0 0 275.18 104.1" style="overflow:visible;enable-background:new 0 0 275.18 104.1;"
	 xml:space="preserve">
<defs>
</defs>
<g>
	<g>
		<path d="M8.92,98.6c-0.45,0.12-0.94,0.21-1.47,0.29C6.92,98.97,6.44,99,6.02,99c-1.45,0-2.56-0.39-3.32-1.16
			c-0.76-0.77-1.14-2.02-1.14-3.72V78.6h2.4v3.91h4.95c0,0,0,1.38,0,2.27c-2.41-0.27-4.95-0.22-4.95-0.22v8.3
			c0,0.74,0.02,1.32,0.05,1.74c0.03,0.42,0.15,0.81,0.36,1.17c0.18,0.34,0.44,0.58,0.77,0.74c0.33,0.16,0.82,0.23,1.5,0.23
			c0.39,0,0.8-0.06,1.22-0.17c0.42-0.11,1.05-0.33,1.05-0.33V98.6z"/>
		<path d="M25.81,90.58c0,2.64-0.63,4.72-1.9,6.24c-1.27,1.53-2.97,2.29-5.1,2.29c-2.15,0-3.86-0.76-5.12-2.29
			c-1.27-1.53-1.9-3.61-1.9-6.24s0.63-4.72,1.9-6.25c1.26-1.53,2.97-2.3,5.12-2.3c2.13,0,3.83,0.77,5.1,2.3
			C25.18,85.86,25.81,87.94,25.81,90.58z M23.38,90.58c0-2.18-0.4-3.81-1.21-4.87c-0.81-1.06-1.93-1.59-3.36-1.59
			c-1.45,0-2.58,0.53-3.38,1.59c-0.8,1.06-1.2,2.68-1.2,4.87c0,2.11,0.4,3.72,1.21,4.81c0.81,1.09,1.93,1.64,3.37,1.64
			c1.43,0,2.54-0.54,3.35-1.62C22.97,94.32,23.38,92.72,23.38,90.58z"/>
		<path d="M34.72,89.44l7.11,9.28h-3.06l-5.82-7.87l-1.56,1.46v6.41h-2.4V78.56h2.4v10.95l6.93-7.05h3.02L34.72,89.44z"/>
		<path d="M55.06,82.5h2.51l-8.59,19.93h-2.56l2.99-6.66L43.71,82.5h2.6l4.36,10.4L55.06,82.5z"/>
		<path d="M72.35,90.58c0,2.64-0.63,4.72-1.9,6.24c-1.27,1.53-2.97,2.29-5.1,2.29c-2.15,0-3.86-0.76-5.12-2.29
			c-1.26-1.53-1.9-3.61-1.9-6.24s0.63-4.72,1.9-6.25c1.27-1.53,2.97-2.3,5.12-2.3c2.13,0,3.83,0.77,5.1,2.3
			C71.72,85.86,72.35,87.94,72.35,90.58z M69.92,90.58c0-2.18-0.4-3.81-1.21-4.87c-0.81-1.06-1.93-1.59-3.36-1.59
			c-1.45,0-2.58,0.53-3.38,1.59c-0.8,1.06-1.2,2.68-1.2,4.87c0,2.11,0.4,3.72,1.21,4.81c0.81,1.09,1.93,1.64,3.37,1.64
			c1.42,0,2.54-0.54,3.35-1.62C69.51,94.32,69.92,92.72,69.92,90.58z"/>
		<path d="M78.46,96.23l7.7-20h1.88l-7.72,20H78.46z"/>
		<path d="M105.89,90.58c0,2.64-0.63,4.72-1.9,6.24c-1.27,1.53-2.97,2.29-5.1,2.29c-2.15,0-3.86-0.76-5.12-2.29
			c-1.27-1.53-1.9-3.61-1.9-6.24s0.63-4.72,1.9-6.25c1.26-1.53,2.97-2.3,5.12-2.3c2.13,0,3.83,0.77,5.1,2.3
			C105.25,85.86,105.89,87.94,105.89,90.58z M103.45,90.58c0-2.18-0.4-3.81-1.21-4.87c-0.81-1.06-1.93-1.59-3.36-1.59
			c-1.45,0-2.58,0.53-3.38,1.59c-0.8,1.06-1.2,2.68-1.2,4.87c0,2.11,0.4,3.72,1.21,4.81c0.81,1.09,1.93,1.64,3.37,1.64
			c1.43,0,2.54-0.54,3.35-1.62C103.05,94.32,103.45,92.72,103.45,90.58z"/>
		<path d="M119.89,94.23c0,1.48-0.57,2.55-1.67,3.5c-1.1,0.95-2.63,1.34-4.54,1.34c-0.93,0-2.07-0.14-2.97-0.43
			c-0.9-0.29-1.66-0.6-2.27-0.94v-2.88c0,0,1.41,0.9,2.72,1.36c0.96,0.34,1.86,0.52,2.73,0.52c1.08,0,1.92-0.22,2.52-0.59
			c0.56-0.35,0.93-0.82,0.93-1.69c0-0.66-0.23-1.22-0.57-1.57c-0.34-0.34-0.98-0.65-1.95-0.89c-0.36-0.09-0.83-0.2-1.41-0.32
			c-0.58-0.12-1.11-0.25-1.59-0.39c-1.33-0.39-2.26-0.97-2.82-1.73c-0.55-0.76-0.83-1.44-0.83-2.5c0-0.67,0.17-1.3,0.42-1.89
			c0.25-0.59,0.63-1.12,1.15-1.58c0.49-0.46,1.12-0.81,1.89-1.08c0.76-0.27,1.62-0.4,2.56-0.4c0.88,0,1.78,0.12,2.68,0.36
			s1.66,0.52,2.26,0.86v2.61c0,0-1.03-0.65-2.23-1.09c-0.95-0.35-2.03-0.5-2.9-0.5c-0.91,0-1.68,0.19-2.31,0.57
			c-0.63,0.38-1.01,1.08-1.01,1.87c0,0.7,0.26,1.23,0.65,1.59c0.38,0.36,0.99,0.65,1.84,0.87c0.47,0.12,0.99,0.24,1.57,0.37
			c0.58,0.12,1.2,0.27,1.67,0.41c1.01,0.29,1.87,0.75,2.51,1.5C119.57,92.24,119.89,93.05,119.89,94.23z"/>
		<path d="M134.99,98.72h-2.4v-0.26c-0.44,0.17-1.57,0.66-3.61,0.66c-0.97,0-3.07-0.18-4.53-1.58c-0.71-0.68-1.58-2-1.58-3.71
			c0-1.4,0.23-2.11,0.7-2.98c0.46-0.86,1.17-1.62,2.02-2.12c2.16-1.28,4.96-1.26,6.48-1.26c0.18,0,0.25,0,0.52,0v-0.59
			c0-0.54-0.1-0.98-0.29-1.34c-0.19-0.36-0.47-0.63-0.82-0.83c-0.34-0.19-0.75-0.32-1.23-0.39c-0.48-0.07-0.97-0.1-1.49-0.1
			c-0.63,0-1.51,0.1-2.29,0.27c-1.23,0.26-2.34,0.63-2.34,0.63v-2.35c0.47-0.13,1.14-0.26,2.03-0.42c0.88-0.15,1.76-0.23,2.61-0.23
			c1,0,1.89,0.08,2.64,0.25c0.74,0.16,1.39,0.44,1.93,0.84c0.54,0.39,0.94,0.89,1.22,1.5c0.28,0.61,0.42,1.38,0.42,2.29V98.72z
			 M132.59,89.5c-0.77,0-1.91-0.01-2.82,0.08c-1.04,0.11-1.67,0.22-2.43,0.61c-0.66,0.33-1.99,1.28-1.99,3.19
			c0,2.57,1.99,3.32,3,3.44c1.78,0.22,3.65-0.35,4.25-0.95V89.5z"/>
		<path d="M144.78,89.44l7.11,9.28h-3.06l-5.82-7.87l-1.56,1.46v6.41h-2.4V78.56h2.4v10.95l6.93-7.05h3.02L144.78,89.44z"/>
		<path d="M165.69,98.72h-2.4v-0.26c-0.44,0.17-1.57,0.66-3.61,0.66c-0.97,0-3.07-0.18-4.53-1.58c-0.71-0.68-1.58-2-1.58-3.71
			c0-1.4,0.23-2.11,0.7-2.98c0.46-0.86,1.17-1.62,2.02-2.12c2.16-1.28,4.96-1.26,6.48-1.26c0.18,0,0.25,0,0.52,0v-0.59
			c0-0.54-0.1-0.98-0.29-1.34c-0.19-0.36-0.47-0.63-0.82-0.83c-0.34-0.19-0.75-0.32-1.23-0.39c-0.48-0.07-0.97-0.1-1.49-0.1
			c-0.63,0-1.51,0.1-2.29,0.27c-1.23,0.26-2.34,0.63-2.34,0.63v-2.35c0.47-0.13,1.14-0.26,2.03-0.42c0.88-0.15,1.76-0.23,2.61-0.23
			c1,0,1.89,0.08,2.64,0.25c0.74,0.16,1.39,0.44,1.93,0.84c0.54,0.39,0.94,0.89,1.22,1.5s0.42,1.38,0.42,2.29V98.72z M163.29,89.5
			c-0.77,0-1.91-0.01-2.82,0.08c-1.04,0.11-1.67,0.22-2.43,0.61c-0.66,0.33-1.99,1.28-1.99,3.19c0,2.57,1.99,3.32,3,3.44
			c1.78,0.22,3.65-0.35,4.25-0.95V89.5z"/>
		<path d="M172.69,96.23l7.7-20h1.88l-7.72,20H172.69z"/>
		<path d="M199.49,88.56c0,0.49,0,10.17,0,10.17h-2.4v-8.26c0-2.12-0.05-3.77-0.94-4.79c-0.85-0.97-1.86-1.27-3.3-1.2
			c-1.08,0.05-2.26,0.47-2.82,0.72v13.53h-2.4V82.5h2.4v0.36c0.61-0.3,1.89-0.76,3.41-0.76C196.76,82.11,199.49,83.91,199.49,88.56z
			"/>
		<path d="M214.49,98.72h-2.4v-0.26c-0.44,0.17-1.57,0.66-3.61,0.66c-0.97,0-3.07-0.18-4.53-1.58c-0.71-0.68-1.58-2-1.58-3.71
			c0-1.4,0.23-2.11,0.7-2.98c0.46-0.86,1.17-1.62,2.02-2.12c2.16-1.28,4.96-1.26,6.48-1.26c0.18,0,0.25,0,0.52,0v-0.59
			c0-0.54-0.1-0.98-0.29-1.34c-0.19-0.36-0.47-0.63-0.82-0.83c-0.34-0.19-0.75-0.32-1.23-0.39c-0.48-0.07-0.97-0.1-1.49-0.1
			c-0.63,0-1.51,0.1-2.29,0.27c-1.23,0.26-2.34,0.63-2.34,0.63v-2.35c0.47-0.13,1.14-0.26,2.03-0.42c0.88-0.15,1.76-0.23,2.61-0.23
			c1,0,1.89,0.08,2.64,0.25c0.74,0.16,1.39,0.44,1.93,0.84c0.54,0.39,0.94,0.89,1.22,1.5s0.42,1.38,0.42,2.29V98.72z M212.09,89.5
			c-0.77,0-1.91-0.01-2.82,0.08c-1.04,0.11-1.67,0.22-2.43,0.61c-0.66,0.33-1.99,1.28-1.99,3.19c0,2.57,1.99,3.32,3,3.44
			c1.78,0.22,3.65-0.35,4.25-0.95V89.5z"/>
		<path d="M230.22,93.95v3.17c0,2.4-0.55,4.17-1.64,5.29s-2.77,1.69-5.05,1.69c-0.75,0-1.49-0.05-2.2-0.16
			c-0.72-0.1-1.42-0.26-2.12-0.45v-2.44c0,0,1.22,0.42,1.98,0.58c0.86,0.18,1.69,0.3,2.54,0.3c0.81,0,1.48-0.1,2.02-0.29
			c0.53-0.2,0.95-0.47,1.24-0.81c0.3-0.33,0.51-0.7,0.63-1.16c0.13-0.47,0.19-0.98,0.19-1.56V97.8c-0.71,0.33-2,0.74-3.54,0.74
			c-3.37,0-5.41-1.92-6.18-4.55c-0.33-1.13-0.5-2.45-0.5-3.81c0-2.71,0.49-4.23,1.48-5.56c1.04-1.4,2.68-2.43,4.76-2.5
			c0.9-0.03,2.44,0.11,3.98,0.73V82.5h2.4V93.95z M227.82,85.31c-0.58-0.34-1.74-0.88-3.6-0.81c-1.22,0.04-2.46,0.62-3.18,1.71
			c-0.55,0.81-0.94,1.88-0.94,3.87c0,2.04,0.31,3.7,1.27,4.76c0.88,0.97,1.98,1.37,3.49,1.3c1.13-0.05,2.3-0.43,2.96-0.68V85.31z"/>
		<path d="M247.27,90.58c0,2.64-0.63,4.72-1.9,6.24s-2.97,2.29-5.1,2.29c-2.15,0-3.86-0.76-5.12-2.29c-1.26-1.53-1.9-3.61-1.9-6.24
			s0.63-4.72,1.9-6.25c1.27-1.53,2.97-2.3,5.12-2.3c2.13,0,3.83,0.77,5.1,2.3C246.64,85.86,247.27,87.94,247.27,90.58z
			 M244.84,90.58c0-2.18-0.4-3.81-1.21-4.87c-0.81-1.06-1.93-1.59-3.36-1.59c-1.45,0-2.58,0.53-3.38,1.59
			c-0.8,1.06-1.2,2.68-1.2,4.87c0,2.11,0.4,3.72,1.21,4.81c0.81,1.09,1.93,1.64,3.37,1.64c1.42,0,2.54-0.54,3.35-1.62
			C244.43,94.32,244.84,92.72,244.84,90.58z"/>
		<path d="M259.73,82.5h2.51l-8.59,19.93h-2.56l2.99-6.66l-5.69-13.27h2.6l4.36,10.4L259.73,82.5z"/>
		<path d="M275.18,98.72h-2.4v-0.26c-0.44,0.17-1.57,0.66-3.61,0.66c-0.97,0-3.07-0.18-4.53-1.58c-0.71-0.68-1.57-2-1.57-3.71
			c0-1.4,0.23-2.11,0.7-2.98c0.46-0.86,1.17-1.62,2.02-2.12c2.16-1.28,4.96-1.26,6.48-1.26c0.18,0,0.25,0,0.52,0v-0.59
			c0-0.54-0.1-0.98-0.29-1.34c-0.19-0.36-0.46-0.63-0.82-0.83c-0.34-0.19-0.75-0.32-1.22-0.39c-0.48-0.07-0.97-0.1-1.49-0.1
			c-0.63,0-1.51,0.1-2.29,0.27c-1.23,0.26-2.34,0.63-2.34,0.63v-2.35c0.47-0.13,1.14-0.26,2.03-0.42c0.88-0.15,1.76-0.23,2.62-0.23
			c1,0,1.89,0.08,2.63,0.25c0.74,0.16,1.39,0.44,1.93,0.84c0.54,0.39,0.94,0.89,1.23,1.5c0.28,0.61,0.42,1.38,0.42,2.29V98.72z
			 M272.78,89.5c-0.77,0-1.92-0.01-2.82,0.08c-1.04,0.11-1.67,0.22-2.44,0.61c-0.66,0.33-1.99,1.28-1.99,3.19
			c0,2.57,1.99,3.32,3,3.44c1.78,0.22,3.65-0.35,4.25-0.95V89.5z"/>
	</g>
	<g>
		<g>
			<g>
				<path d="M28.95,0v9.91h-6.33C3.88,9.91,0,23.92,0,33.99c0,7.4,2.22,13.81,6.27,18.05c3.48,3.65,8.15,5.56,13.5,5.56
					c3.62,0,6.63-0.66,9.17-2l0.07,1.01h12.37V0H28.95z M11.78,33.65c0-4.79,1.36-12.87,10.32-13.5c1.23-0.08,4.49-0.34,6.84-0.41
					c0,0.5,0,24.64,0,24.79c-1.64,1.1-4.15,1.93-7.02,2.01c-2.8,0.06-5.25-0.79-6.87-2.35l0,0C12.89,42.13,11.78,38.58,11.78,33.65z
					"/>
				<path d="M73.66,46.65c-6.63-0.12-10.23-3.68-11.34-9.97c0.58,0,29.95,0,29.95,0l0.02-0.49c0.05-4.22-0.02-7.8-0.14-9.36
					c-0.48-5.31-2.4-9.78-5.58-12.9c-3.55-3.48-8.49-5.26-14.68-5.26c-7.16,0-13.06,2.65-17.07,7.64l0,0
					c-3.58,4.45-5.54,10.65-5.54,17.54c0,11.46,6.46,23.72,24.62,23.72c6.95,0,13.74-2.15,17.64-4.07V42.03
					C89.38,43.22,82.73,46.79,73.66,46.65z M71.85,19.26c4.62,0,7.81,3.25,8.14,7.36c-0.51,0-16.81,0-17.46,0
					C63.79,22.15,66.89,19.26,71.85,19.26z"/>
				<path d="M129.74,28.96v27.65h12.4V27.13c0-12.32-5.7-18.33-17.41-18.33c-4,0-8.46,1.49-10.15,2.12l-0.06-1.01h-12.37v46.7h12.43
					c0,0,0-34.72,0-34.98c2.66-1.68,6.85-2.37,10.2-1.59C128.12,20.8,129.74,22.91,129.74,28.96z"/>
				<path d="M247.2,37.55V9.9h-12.43v29.48c0,12.34,5.72,18.35,17.43,18.35c4.03,0,8.45-1.52,10.17-2.13l0.06,1.01h12.36V9.9h-12.42
					c0,0,0,34.72,0,34.98c-2.65,1.68-6.85,2.38-10.2,1.6C248.83,45.72,247.2,43.6,247.2,37.55z"/>
				<g>
					<path d="M152.63,0v40.52c0,5.61,0.97,9.51,3.03,12.26c2.46,3.27,6.43,4.83,12.14,4.83c4.6,0,9.05-1,11.62-1.82V44.62
						c-1.6,0.4-6.51,1.46-9.36,1.46c-1.83,0-3.09-0.38-3.86-1.15c-1.16-1.14-1.16-3.11-1.16-5.02V20.18
						c4.91,0,10.99,0.34,14.38,0.71V9.91c0,0-13.91,0-14.38,0c0-0.46,0-9.91,0-9.91H152.63z"/>
				</g>
				<path d="M224.24,33.95c-2.48-3.44-6.31-5.2-13.34-6.53c-2.92-0.54-6.35-1.15-8.36-2.24c-0.95-0.53-1.48-1.28-1.45-2.1
					c0.02-0.82,0.56-1.57,1.39-2.01c1.82-0.98,5.11-1.48,10.08-0.58c4.81,0.87,10.08,2.73,11.76,3.44v-11.3
					c-5.75-2.86-10.87-3.97-16.6-3.87c-5.35,0.1-9.95,1.48-13.37,4.03c-3.59,2.69-5.6,6.57-5.81,11.17
					c-0.35,7.75,4.49,12.38,15.71,14.54c2.36,0.47,5.72,1.17,7.17,1.77c1.48,0.59,2.31,1.54,2.31,2.63
					c0.03,1.04-0.72,2.02-1.89,2.51c-2.1,0.88-5.48,0.75-7.69,0.52c-6.4-0.64-12.53-2.92-14.76-3.92v11.59
					c3.8,1.93,9.76,4.15,16.86,4.02c8.14-0.15,18.22-2.55,20.07-13.29C226.98,40.39,226.27,36.8,224.24,33.95z"/>
			</g>
		</g>
	</g>
</g>
</svg>
