<svg xmlns="http://www.w3.org/2000/svg" viewBox="0 0 253.891 98.917"><g transform="translate(0)"><path d="M295.085,251.989c.065-1.953-.054-3.5-.125-5.575a50.787,50.787,0,0,0-3.123-16.376,36.208,36.208,0,0,0-8.437-13.049,42.087,42.087,0,0,0-13.445-8.455,67.382,67.382,0,0,0-15.384-4.242l-.609-.09a105.623,105.623,0,0,0-17.369-1.21h0a105.6,105.6,0,0,0-17.368,1.21l-.61.09a67.371,67.371,0,0,0-15.383,4.242,42.087,42.087,0,0,0-13.445,8.455,36.215,36.215,0,0,0-8.437,13.049,50.8,50.8,0,0,0-3.123,16.376c-.071,2.071-.189,3.622-.125,5.575-.064,1.954,0,4.282.125,6.5a54.615,54.615,0,0,0,3.123,16.375,36.219,36.219,0,0,0,8.437,13.049,42.1,42.1,0,0,0,13.445,8.455,67.372,67.372,0,0,0,15.383,4.242l.61.09a105.537,105.537,0,0,0,17.368,1.21h0a105.563,105.563,0,0,0,17.369-1.21l.609-.09a67.383,67.383,0,0,0,15.384-4.242,42.1,42.1,0,0,0,13.445-8.455,36.212,36.212,0,0,0,8.437-13.049,54.564,54.564,0,0,0,3.123-16.375c.125-2.217.189-4.544.125-6.5M275.6,255.437a85.226,85.226,0,0,1-.975,12.039,30.31,30.31,0,0,1-3.121,9.1,22.024,22.024,0,0,1-8.475,8.626,34.75,34.75,0,0,1-10.892,3.969,82.169,82.169,0,0,1-31.09,0,34.755,34.755,0,0,1-10.892-3.969,22.024,22.024,0,0,1-8.475-8.626,30.34,30.34,0,0,1-3.121-9.1,85.38,85.38,0,0,1-.975-12.039c-.021-2.313.094-4.885.094-5.889a81.785,81.785,0,0,1,.881-12.122,30.344,30.344,0,0,1,3.121-9.1,22.023,22.023,0,0,1,8.475-8.626,34.766,34.766,0,0,1,10.892-3.969,82.169,82.169,0,0,1,31.09,0,34.762,34.762,0,0,1,10.892,3.969,22.023,22.023,0,0,1,8.475,8.626,30.315,30.315,0,0,1,3.121,9.1,81.713,81.713,0,0,1,.881,12.122c0,1,.115,3.577.093,5.889" transform="translate(-178.074 -202.992)" fill="#fff"/><g transform="translate(122.807 25.069)"><path d="M508.865,255.918c.007-.193-.005-.347-.013-.553a4.775,4.775,0,0,0-.33-1.624,3.572,3.572,0,0,0-.891-1.295,4.481,4.481,0,0,0-1.419-.838,7.458,7.458,0,0,0-1.624-.421l-.064-.009a14.137,14.137,0,0,0-3.668,0l-.064.009a7.466,7.466,0,0,0-1.625.421,4.489,4.489,0,0,0-1.419.838,3.573,3.573,0,0,0-.891,1.295,4.788,4.788,0,0,0-.33,1.624c-.007.205-.02.359-.013.553s0,.425.013.645a5.141,5.141,0,0,0,.33,1.624,3.571,3.571,0,0,0,.891,1.294,4.5,4.5,0,0,0,1.419.839,7.493,7.493,0,0,0,1.625.421l.064.009a14.08,14.08,0,0,0,3.668,0l.064-.009a7.485,7.485,0,0,0,1.624-.421,4.491,4.491,0,0,0,1.419-.839,3.57,3.57,0,0,0,.891-1.294,5.125,5.125,0,0,0,.33-1.624c.013-.22.02-.451.013-.645m-2.057.342a8,8,0,0,1-.1,1.193,2.907,2.907,0,0,1-.33.9,2.26,2.26,0,0,1-.9.856,3.826,3.826,0,0,1-1.15.393,9.231,9.231,0,0,1-3.283,0,3.812,3.812,0,0,1-1.15-.393,2.255,2.255,0,0,1-.9-.856,2.89,2.89,0,0,1-.329-.9,7.992,7.992,0,0,1-.1-1.193c0-.23.01-.485.01-.585a7.6,7.6,0,0,1,.093-1.2,2.9,2.9,0,0,1,.329-.9,2.255,2.255,0,0,1,.9-.856,3.813,3.813,0,0,1,1.15-.393,9.232,9.232,0,0,1,3.283,0,3.827,3.827,0,0,1,1.15.393,2.261,2.261,0,0,1,.9.856,2.912,2.912,0,0,1,.33.9,7.671,7.671,0,0,1,.092,1.2c0,.1.013.355.01.585" transform="translate(-453.233 -251.058)" fill="#fff"/><path d="M594.269,252.292a3.9,3.9,0,0,0-1.225-.684,7.491,7.491,0,0,0-1.625-.42l-.064-.009a11.933,11.933,0,0,0-1.833-.12h0a11.941,11.941,0,0,0-1.834.12l-.064.009a7.487,7.487,0,0,0-1.624.42,4.494,4.494,0,0,0-1.42.839,3.581,3.581,0,0,0-.891,1.295,4.784,4.784,0,0,0-.33,1.624c-.007.205-.02.359-.013.553s0,.425.013.645a5.126,5.126,0,0,0,.33,1.624,3.575,3.575,0,0,0,.891,1.294,4.485,4.485,0,0,0,1.42.839,7.515,7.515,0,0,0,1.624.42l.064.009a11.844,11.844,0,0,0,1.834.12h0a11.836,11.836,0,0,0,1.833-.12l.064-.009a7.519,7.519,0,0,0,1.625-.42,4.455,4.455,0,0,0,1.083-.592c.115-.083.349-.236.1-.454s-.592-.684-.716-.8a.314.314,0,0,0-.458.021,2.916,2.916,0,0,1-.743.558,3.825,3.825,0,0,1-1.15.393,9.2,9.2,0,0,1-3.283,0,3.877,3.877,0,0,1-1.164-.379,2.44,2.44,0,0,1-.865-.742,2.748,2.748,0,0,1-.363-.9,6.564,6.564,0,0,1-.086-1.17c0-.229.01-.485.01-.584a5.966,5.966,0,0,1,.115-1.241,2.59,2.59,0,0,1,.4-.888,2.776,2.776,0,0,1,.8-.676,3.781,3.781,0,0,1,1.15-.394,9.233,9.233,0,0,1,3.283,0,3.827,3.827,0,0,1,1.15.394,2.129,2.129,0,0,1,.733.637.294.294,0,0,0,.417,0c.075-.065.742-.826.79-.875a.224.224,0,0,0,.016-.343" transform="translate(-494.777 -251.058)" fill="#fff"/><path d="M482.2,260.906a6.879,6.879,0,0,1-2-.327,5.312,5.312,0,0,1-.873-.368c-.028-.016-.314-.19-.4-.256-.283-.216-.235-.323-.118-.483l.029-.04c.1-.143.337-.413.377-.473a.64.64,0,0,1,.462-.3c.159,0,.618.411.873.552a5.459,5.459,0,0,0,1.525.538,3.883,3.883,0,0,0,1.374-.048,2.52,2.52,0,0,0,.7-.36,1.521,1.521,0,0,0,.435-.513,1.384,1.384,0,0,0,.155-.644.97.97,0,0,0-.334-.784,3.2,3.2,0,0,0-.937-.525c-.4-.151-.84-.29-1.3-.415a8.632,8.632,0,0,1-1.405-.509,3.607,3.607,0,0,1-1.135-.814,1.929,1.929,0,0,1-.474-1.355,2.1,2.1,0,0,1,.294-1.089,2.625,2.625,0,0,1,.859-.857,4.529,4.529,0,0,1,1.326-.552,6.547,6.547,0,0,1,1.663-.219,5.433,5.433,0,0,1,1.409.156,4.7,4.7,0,0,1,1.04.379c.255.132.6.28.429.6-.04.074-.3.466-.344.522a.55.55,0,0,1-.635.081,3.858,3.858,0,0,0-1.632-.671,3.463,3.463,0,0,0-1.188.061,2.061,2.061,0,0,0-.621.248,1.293,1.293,0,0,0-.4.426,1.111,1.111,0,0,0-.143.554.988.988,0,0,0,.333.8,3.312,3.312,0,0,0,.941.533,11.927,11.927,0,0,0,1.3.413,9.456,9.456,0,0,1,1.4.48,3.583,3.583,0,0,1,1.139.767,1.764,1.764,0,0,1,.48,1.282,2.49,2.49,0,0,1-.318,1.218,3.051,3.051,0,0,1-.929,1.01,5.493,5.493,0,0,1-3.357.985" transform="translate(-444.722 -251.062)" fill="#fff"/><path d="M420.867,259.828a.383.383,0,0,0-.4-.252c-.171,0-3.978,0-4.37,0a.465.465,0,0,1-.5-.529s.007-7.134,0-7.266a.373.373,0,0,0-.268-.377c-.083-.022-.633-.025-.77-.025-.118,0-.655,0-.739.024a.371.371,0,0,0-.269.376c-.008.132-.009,5.645-.008,6.624s-.016,1.445,0,1.62a.97.97,0,0,0,.152.573.765.765,0,0,0,.538.3c.087.008.54.008.655.006.06,0,.157,0,.246,0h1.217c1.042,0,3.979.007,4.12,0a.393.393,0,0,0,.4-.251,2.018,2.018,0,0,0,.027-.41,1.99,1.99,0,0,0-.026-.41" transform="translate(-413.534 -251.212)" fill="#fff"/><path d="M561.317,251.428h-8.841c-.285,0-.386.086-.387.283,0,.132.005.676.005.757,0,.2.122.282.337.285h3.442c0,2.342,0,7.731,0,7.771a.372.372,0,0,0,.267.377,2.438,2.438,0,0,0,.437.025c.114,0,.989,0,1.072-.024a.372.372,0,0,0,.269-.375c.006-.089.007-5.443.006-7.773h3.439c.215,0,.337-.08.337-.285,0-.081.006-.625.006-.757,0-.2-.1-.283-.388-.283" transform="translate(-479.823 -251.235)" fill="#fff"/><path d="M655.653,251.428h-8.841c-.285,0-.385.086-.387.283,0,.132.005.676.005.757,0,.2.122.282.337.285h3.442c0,2.342,0,7.731,0,7.771a.373.373,0,0,0,.267.377,2.438,2.438,0,0,0,.437.025c.114,0,.989,0,1.072-.024a.372.372,0,0,0,.269-.375c.006-.089.007-5.443.006-7.773H655.7c.216,0,.338-.08.338-.285,0-.081.006-.625.005-.757,0-.2-.1-.283-.388-.283" transform="translate(-524.957 -251.235)" fill="#fff"/><path d="M576.917,251.979h0v-.144a.374.374,0,0,0-.268-.38,2.475,2.475,0,0,0-.437-.026c-.114,0-.989,0-1.073.025a.372.372,0,0,0-.269.376s0,.061,0,.15h0c0,1.271,0,4.573,0,6.4v2h0c0,.092,0,.145,0,.145a.373.373,0,0,0,.268.38,2.426,2.426,0,0,0,.437.026c.114,0,.989,0,1.072-.025a.372.372,0,0,0,.269-.376s0-.06,0-.15h0c0-1.271,0-3.8,0-5.626,0-.783,0-2.266,0-2.773" transform="translate(-490.72 -251.235)" fill="#fff"/><path d="M635.615,259.6c-.07,0-3.776,0-5.111,0h-.171c0-.8,0-1.795,0-2.8,1.869,0,4.764,0,4.852,0a.393.393,0,0,0,.4-.25,1.988,1.988,0,0,0,.027-.41,2.014,2.014,0,0,0-.026-.409.384.384,0,0,0-.4-.253c-.063,0-3.224,0-4.853,0v-.726c0-.521,0-1.349,0-2,1.686,0,5.18,0,5.278,0a.394.394,0,0,0,.4-.251,2.052,2.052,0,0,0,.027-.41,2.024,2.024,0,0,0-.026-.41.383.383,0,0,0-.4-.252c-.07,0-3.776,0-5.111,0-.2,0-.388,0-.442,0h-.306c-.044,0-.094,0-.125,0-.114,0-.989,0-1.073.024a.372.372,0,0,0-.269.376s0,.062,0,.151h0c0,1.271,0,4.573,0,6.4v2h0c0,.092,0,.145,0,.145a.372.372,0,0,0,.267.38,2.434,2.434,0,0,0,.437.026c.078,0,.507,0,.8-.009v.009c1.288,0,5.713,0,5.824,0a.393.393,0,0,0,.4-.251,2.058,2.058,0,0,0,.027-.41,2.023,2.023,0,0,0-.026-.41A.383.383,0,0,0,635.615,259.6Z" transform="translate(-516.277 -251.235)" fill="#fff"/><path d="M617.057,260.588c-.065-.079-4.046-4.316-4.713-4.98,1.317-1.107,4.412-3.737,4.465-3.8a.21.21,0,0,0-.193-.339c-.113,0-1.051,0-1.183,0a1.21,1.21,0,0,0-.693.124c-.042.037-2.989,2.44-4.291,3.511v-3.124h0c0-.092,0-.144,0-.144a.375.375,0,0,0-.268-.381,2.476,2.476,0,0,0-.436-.025c-.114,0-.989,0-1.073.024a.371.371,0,0,0-.269.376s0,.061,0,.151h0c0,1.27,0,4.573,0,6.4,0,.783,0,1.49,0,2h0c0,.092,0,.145,0,.145a.372.372,0,0,0,.267.38,2.425,2.425,0,0,0,.437.026c.114,0,.989,0,1.073-.025a.372.372,0,0,0,.268-.376s0-.062,0-.15h0c0-.769,0-1.909,0-3.166.209-.2.356-.328.534-.487.72.737,3.814,4.038,3.861,4.079a.549.549,0,0,0,.446.124c.131,0,1.46,0,1.574,0a.21.21,0,0,0,.193-.34" transform="translate(-506.763 -251.235)" fill="#fff"/><path d="M440.365,260.379c-.07-.15-4.071-8.222-4.125-8.345a.911.911,0,0,0-.834-.664l-.3,0c-.153,0-.32,0-.341,0a.91.91,0,0,0-.835.664c-.054.122-4.077,8.229-4.146,8.378a.335.335,0,0,0,.282.483h1.157a.579.579,0,0,0,.552-.407c.028-.055.431-.936,1.077-2.341,0-.009.043-.095.084-.17a.3.3,0,0,1,.257-.186c.445,0,3.336,0,3.781,0a.294.294,0,0,1,.257.186c.041.075.08.161.085.17.646,1.4,1.049,2.285,1.077,2.341a.579.579,0,0,0,.552.407H440.1a.355.355,0,0,0,.261-.517m-3.875-3.611-1.4,0-1.409,0c-.112,0-.156-.071-.113-.164.578-1.261,1.073-2.334,1.245-2.7.061-.128.133-.367.272-.368s.212.24.273.368c.172.369.667,1.442,1.245,2.7.043.093,0,.164-.113.164" transform="translate(-421.292 -251.206)" fill="#fff"/><path d="M463.251,251.648c-.167-.005-1.016,0-1.126,0a.39.39,0,0,0-.407.263c-.034.1-1.1,4.32-1.757,6.6-.746-2.252-1.875-6.45-1.9-6.551-.057-.2-.228-.312-.507-.313-.086,0-1.464,0-1.624,0a.387.387,0,0,0-.42.265c-.016.042-1.391,4.458-1.989,6.621-.7-2.12-2.151-6.516-2.193-6.629-.082-.22-.281-.256-.632-.261-.087,0-.693,0-.975,0-.317,0-.513.09-.447.343.045.167,2.884,8.667,2.932,8.789.07.179.127.246.4.246h1.477a.25.25,0,0,0,.243-.189c.061-.172,2.07-7.3,2.148-7.527.108.33,2.4,7.347,2.442,7.47.077.208.175.246.452.246.132,0,1.393,0,1.431,0a.213.213,0,0,0,.226-.129c.047-.123,2.545-8.492,2.58-8.618.114-.417-.028-.626-.354-.635" transform="translate(-430.625 -251.339)" fill="#fff"/><path d="M533.7,251.792a.4.4,0,0,0-.435-.414h-1.208c-.313,0-.4.217-.4.462,0,.095.012,3.588.014,6.1-1.816-2.054-5.065-5.8-5.208-5.966a1.357,1.357,0,0,0-1.063-.6c-.215-.005-1.2,0-1.346,0-.5,0-.62.264-.62.557,0,.132-.008,8.434,0,8.523a.454.454,0,0,0,.3.417,1.982,1.982,0,0,0,.4.025c.114,0,.951,0,1.035-.024a.454.454,0,0,0,.307-.415c.006-.1.008-4.626.006-7.106,1.526,1.847,5.558,6.533,5.85,6.876s.526.668.869.668c.26,0,1.052,0,1.225,0s.273-.155.273-.4c0-.132,0-8.528,0-8.709" transform="translate(-466.109 -251.21)" fill="#fff"/></g><path d="M430.791,331.984a1.692,1.692,0,0,0-1.719-1.153c-.6-.035-5.109-.039-9.587-.034-4.478-.02-8.983-.032-9.587,0a1.693,1.693,0,0,0-1.723,1.148,15.424,15.424,0,0,0,0,3.752,1.692,1.692,0,0,0,1.718,1.154c.6.034,5.11.038,9.588.033,4.478.02,8.983.032,9.587,0a1.692,1.692,0,0,0,1.723-1.147,9.888,9.888,0,0,0,.117-1.876,9.788,9.788,0,0,0-.112-1.876" transform="translate(-288.105 -264.129)" fill="#fff"/><path d="M514.026,308.331a1.692,1.692,0,0,0-1.719-1.153c-.3-.017-12.39,0-15.56-.012-1.654-.008-2.114-.3-2.114-1.46,0-1.055.086-6.9-.021-7.855-.127-1.134-1.026-1.467-1.8-1.618,4.141-.316,10.116-.677,10.572-.737.917-.121,1.742-.579,1.887-1.286a9.48,9.48,0,0,0,.019-1.873,5.07,5.07,0,0,0-.35-2.016c-.573-.911-1.484-.989-3.646-.861-.6.035-6.94.622-11.4.979-4.466.331-14.037,1.235-15.281,1.357-1.593.156-2.593.343-2.735,1.392A11.671,11.671,0,0,0,471.9,295a3.908,3.908,0,0,0,.7,2.243c.553.524,1.474.439,2.57.419,1.635-.029,9.187-.748,9.874-.77s1.018.575,1.025,1.415c.006.776.023,6.537.023,7.3,0,1.5-1.019,1.551-2.419,1.551-4.011,0-5.255.005-6.564.007-4.478-.021-11.277-.032-11.881,0a1.692,1.692,0,0,0-1.723,1.147,15.349,15.349,0,0,0,0,3.751,1.691,1.691,0,0,0,1.718,1.154c.6.034,12.211-.053,16.031-.053,1.02,0,4.233-.343,4.4,1.782a32.408,32.408,0,0,1-.39,5.54,14.032,14.032,0,0,1-1.416,4.13,10.48,10.48,0,0,1-3.566,4.141,15.3,15.3,0,0,1-4.887,2.034,27.156,27.156,0,0,1-4.334.618c-.793.025-.717.548-.65.877.033.16.445,1.976.675,2.7a1.2,1.2,0,0,0,.987.872,32.4,32.4,0,0,0,4.689-.245,24.727,24.727,0,0,0,6.465-1.791,21.4,21.4,0,0,0,6.018-4.07,16.425,16.425,0,0,0,3.827-5.92,21.5,21.5,0,0,0,1.456-7.351c0-.135.1-1.324.142-2.145.053-1.028,1.6-1.1,2.518-1.07,7.689,0,14.8,0,15.112-.02a1.692,1.692,0,0,0,1.723-1.147,9.8,9.8,0,0,0,.118-1.876,10.2,10.2,0,0,0-.1-1.9" transform="translate(-314.576 -244.339)" fill="#fff"/><path d="M619.682,296.467c-.184-.7-.769-1.007-1.691-1.078.358.028-22.72,0-30.518,0-1.089,0-1.81-.523-1.84-1.369.056-1.9.118-3.419.129-3.974.018-.917-.64-1.179-1.632-1.2-.888-.021-4.1,0-4.384-.006-1.009-.021-1.549.474-1.564,1.259-.011.513-.033,1.27-.043,1.447-.015,3.476-.023,5.389-.207,7.541a19.542,19.542,0,0,1-1.489,5.978,27.614,27.614,0,0,1-3.056,5.314,21.672,21.672,0,0,1-2.209,2.47c-.649.649-.642,1.249-.105,1.757,1.165,1.1,1.938,1.614,2.625,2.2a1.368,1.368,0,0,0,1.976.127,19.126,19.126,0,0,0,3.011-3.416,34.036,34.036,0,0,0,2.866-4.537c1.085-2.04,2.025-4.413,2.831-5.921.782-1.614,2.033-1.711,4.574-1.648.611.015,9.417,0,9.685,0,2.533.013,3.445,1.469,3.422,2.6-.04,1.955-.061,3.37-.1,5.124-.036,1.721-.024,3.123-.2,5.6-.273,2.62-.6,4.435-.839,5.679a14.036,14.036,0,0,1-1.5,4.1,10.48,10.48,0,0,1-3.65,4.067,15.3,15.3,0,0,1-4.927,1.932,27.047,27.047,0,0,1-4.346.529c-.794.008-.729.534-.668.864.03.161.4,1.985.619,2.718a1.2,1.2,0,0,0,.968.891,32.241,32.241,0,0,0,4.692-.149,24.675,24.675,0,0,0,6.5-1.658,21.39,21.39,0,0,0,6.1-3.945,16.438,16.438,0,0,0,3.949-5.839,25.835,25.835,0,0,0,1.606-7.319c.015-.135.126-1.322.186-2.142.075-1.027.082-5.064.126-6.849l.023-1.494c.034-1.637-.035-4.717,1.552-4.712.471,0,5.591,0,5.688,0,.924-.03,1.764-.324,1.813-1.193.021-.373.12-3.383.025-3.745" transform="translate(-365.91 -244.062)" fill="#fff"/></g></svg>
