<svg xmlns="http://www.w3.org/2000/svg" xmlns:xlink="http://www.w3.org/1999/xlink" width="229.372" height="49.151" viewBox="0 0 229.372 49.151"><defs><clipPath id="a"><rect width="229.372" height="49.151" transform="translate(-644 3567)" fill="#fff"/></clipPath></defs><g transform="translate(644 -3567)" clip-path="url(#a)"><g transform="translate(-996.297 3233.435)"><path d="M509.413,360.219a3.755,3.755,0,0,0,.869-2.422v-3.34H493.209v3.713h9.434l-8.266,9.143a3.611,3.611,0,0,0-.919,2.36v3.4h17.066v-3.712H501.16Z" fill="#fff"/><path d="M560.343,358.17a1.862,1.862,0,0,1,1.86,1.866v7.453a1.867,1.867,0,0,1-1.862,1.868h-2.808a1.868,1.868,0,0,1-1.866-1.868v-7.453a1.867,1.867,0,0,1,1.866-1.866Zm-8.036-3.713a3.747,3.747,0,0,0-3.753,3.726v11.158a3.749,3.749,0,0,0,3.753,3.728H565.6a3.709,3.709,0,0,0,3.709-3.728V358.183a3.71,3.71,0,0,0-3.71-3.726Z" fill="#fff"/><path d="M483.891,354.457h7.114v14.888a3.7,3.7,0,0,1-3.7,3.724h-3.41Z" fill="#fff"/><path d="M516.493,373.069a3.745,3.745,0,0,1-3.749-3.728V354.457h7.113v13.026a1.888,1.888,0,0,0,1.884,1.874h2.283a1.846,1.846,0,0,0,1.838-1.868V354.457h16.532a3.716,3.716,0,0,1,3.715,3.726v14.886h-7.116V360.027a1.857,1.857,0,0,0-1.864-1.857h-4.148v11.171a3.708,3.708,0,0,1-3.706,3.728Z" fill="#fff"/><path d="M473.427,348.056a8.564,8.564,0,0,0-6.626,3.119l-18.148,21.894h10.3l13.765-16.6a5.633,5.633,0,0,1,4.319-2.016l3.634,0L465.3,373.069H476.35a4.645,4.645,0,0,0,4.639-4.66V348.056Z" fill="#fff"/><path d="M450.107,351.175,431.96,373.069h10.3l13.765-16.6a5.639,5.639,0,0,1,4.322-2.016h3.745v-6.4h-7.355A8.566,8.566,0,0,0,450.107,351.175Z" fill="#fff"/><path d="M396.584,359.723a41.165,41.165,0,0,0,11.486-1.262c-2.388,1.781-4.5,5.028-4.734,7.508A23.14,23.14,0,0,0,396.584,359.723Zm14.023,13.371c-1.005-3.229-2.491-10.465,3.9-14.949,4.565-3.2,18.424-6.994,25.851-9.715L445.7,341.2a114.934,114.934,0,0,1-17.723,7.136c-13.429,4.114-21.462,6.561-31.809,6.763-7.446.146-7.549-3.374-.3-9.675a232.981,232.981,0,0,1-32.575,9.828c11.651.328,20.5,2.7,25.813,5.782,7.568,4.395,9.4,9.012,10.26,12.064Z" fill="#fff" fill-rule="evenodd"/></g></g></svg>
