<svg xmlns="http://www.w3.org/2000/svg" width="275.69mm" height="38.53mm" viewBox="0 0 781.49 109.23">
  <title>アセット 1</title>
  <g id="レイヤー_2" data-name="レイヤー 2">
    <g id="ロゴ">
      <g>
        <polygon points="124.67 91.42 141.01 91.42 141.01 56.23 141.01 48.06 141.01 17.25 124.67 17.25 124.67 91.42" style="fill: #1f286f"/>
        <polygon points="457.79 91.42 474.13 91.42 474.13 56.23 474.13 48.06 474.13 17.26 457.79 17.26 457.79 91.42" style="fill: #1f286f"/>
        <path d="M233.17,17.26,199.8,91.1,165.71,51.72l31.55-34.46H175.88L144.85,52l32.4,39.45h40.43l5.91-14.26h32.26L262,91.42h18.44L246.68,17.26Zm-3.86,46.07,10.14-24.49,10.48,24.49Z" style="fill: #1f286f"/>
        <path d="M566.29,17.26,532.93,91.11l-34.1-39.39,31.55-34.46H509L478,52l32.4,39.45h40.44l5.9-14.26H589l6.1,14.26h18.44L579.8,17.26Zm-3.85,46.07,10.14-24.49,10.48,24.49Z" style="fill: #1f286f"/>
        <path d="M747.78,17.26H734.26L700.75,91.42h18l5.9-14.26H757l6.1,14.26h18.44ZM730.41,63.33l10.14-24.49L751,63.33Z" style="fill: #1f286f"/>
        <path d="M343.71,25.69a38.72,38.72,0,0,0-14-6.44,69.91,69.91,0,0,0-16.92-2H288.3V91.42H315A52,52,0,0,0,330.84,89a40.72,40.72,0,0,0,13.3-7.08,34.11,34.11,0,0,0,9.16-11.52,35.37,35.37,0,0,0,3.4-15.87q0-10.15-3.5-17.29A31.57,31.57,0,0,0,343.71,25.69Zm-6,38.65a18.27,18.27,0,0,1-5.61,7,22.48,22.48,0,0,1-8.43,3.83,45.53,45.53,0,0,1-10.52,1.15h-8.49v-44h9.64a36.23,36.23,0,0,1,9.8,1.31,24.11,24.11,0,0,1,8.11,3.93,18.81,18.81,0,0,1,5.5,6.65,20.76,20.76,0,0,1,2,9.48A24.91,24.91,0,0,1,337.69,64.34Z" style="fill: #1f286f"/>
        <path d="M435.37,25.9a36.54,36.54,0,0,0-12.68-7.8,48.4,48.4,0,0,0-32.05,0A36.54,36.54,0,0,0,378,25.9a35.7,35.7,0,0,0-8.33,12.31,42,42,0,0,0-3,16.13,42.19,42.19,0,0,0,3,16.14A35.66,35.66,0,0,0,378,82.78a36.54,36.54,0,0,0,12.68,7.8,48.4,48.4,0,0,0,32.05,0,36.54,36.54,0,0,0,12.68-7.8,35.52,35.52,0,0,0,8.33-12.3,42.18,42.18,0,0,0,3-16.14,42,42,0,0,0-3-16.13A35.56,35.56,0,0,0,435.37,25.9Zm-7.29,38a22,22,0,0,1-4.65,7.54,21.33,21.33,0,0,1-7.29,5,26,26,0,0,1-18.95,0,21.14,21.14,0,0,1-7.29-5,22.06,22.06,0,0,1-4.66-7.54,27.26,27.26,0,0,1-1.62-9.59,27.46,27.46,0,0,1,1.62-9.54,22.09,22.09,0,0,1,4.66-7.59,21.41,21.41,0,0,1,7.29-5,26.11,26.11,0,0,1,18.95,0,21.61,21.61,0,0,1,7.29,5,22.07,22.07,0,0,1,4.65,7.59,28.88,28.88,0,0,1,0,19.13Z" style="fill: #1f286f"/>
        <polygon points="691.56 17.26 679.09 66.07 678.88 66.07 664.94 17.26 649.75 17.26 635.69 64.82 635.48 64.82 623.64 17.26 605.84 17.26 627.83 91.42 641.87 91.42 656.77 40.09 656.98 40.09 671.87 91.42 686.42 91.42 708.12 17.26 691.56 17.26" style="fill: #1f286f"/>
        <path d="M46.3,17a1.22,1.22,0,0,0-2-.85,5.64,5.64,0,0,0-.63,1.74,4.5,4.5,0,0,1-3.87,3.34,5.71,5.71,0,0,0,4.86-1.12A4,4,0,0,0,46.3,17Z" style="fill: #1f286f"/>
        <path d="M45.77,21.79a4,4,0,0,0,2.83-3.08c.09-.83-.14-1.48-.9-1.38s-1,1.4-1.29,2c-.83,1.38-2.33,2-4.31,2.26a2.59,2.59,0,0,0,1.71.4A7.74,7.74,0,0,0,45.77,21.79Z" style="fill: #1f286f"/>
        <path d="M53.12,99.65c-.68-.35-2.27,0-3,0s-2.6.34-2.9-.18a2.25,2.25,0,0,1,0-1.07c.14-1.22.29-2.24.48-3.27,1.53-.13,3.1-.52,3.27-1.93a4.38,4.38,0,0,1-3,.15A46.59,46.59,0,0,1,49.3,87c.2-.62.36-1.59.82-1.74a4.13,4.13,0,0,1,1.15,0c3,.15,5.6-.47,6.89-2.11-2.23.44-5.84,1-7.63-.18a9.37,9.37,0,0,1-1.34-1.27,33.53,33.53,0,0,1-3.64-4.23c-.74-.06-1.63,0-2.37-.07a11,11,0,0,1,2.67-.62c-.33-.56-.78-1.13-1.18-1.72a4.17,4.17,0,0,1-1-1.88c.51-.1.88.39,1.22.67s.72.61,1.08.89a47.34,47.34,0,0,0,12.75,6.93A20.49,20.49,0,0,0,65.21,83a61.49,61.49,0,0,1-6.45-3.67,19.64,19.64,0,0,1-5.42-4.75,38.77,38.77,0,0,0,6.38,3.78,19.81,19.81,0,0,0,8.24,2,12.62,12.62,0,0,0,6.34-1.66c-5.41.07-9.44-1.27-11.87-4.19a29.48,29.48,0,0,0,12.32-4.57,32.47,32.47,0,0,0,8.6-8.3,27.57,27.57,0,0,0,4.9-12,16.57,16.57,0,0,0-.34-7.53,7.47,7.47,0,0,0-3.86-4.59c-1.94-.81-4,.19-4.26,1.89a19.82,19.82,0,0,0,0,2.67,32.7,32.7,0,0,1-3.67,15.14c-3.7,6.9-10,11.55-18.51,13.68A28.94,28.94,0,0,1,48.11,72a12,12,0,0,1-7.35-3.39,12.85,12.85,0,0,1-3.78-7,26.61,26.61,0,0,0,4.16,5.85,9.15,9.15,0,0,0,6.6,3.35A10.91,10.91,0,0,1,42.4,64.4a12.12,12.12,0,0,0,6.09,5.53A12.41,12.41,0,0,0,58,69.15c-4.82,0-7.83-1.81-10-4.48,0,0,0,0,.08,0,2.68,1.65,6.4,3.66,10.79,3.35a14.47,14.47,0,0,0,9-4.24c.15-.13.39-.28.34-.41-2.9,1.32-7.73,1.63-11.65,1a8.53,8.53,0,0,1-3.45-1c5.35.7,11.32.65,15.21-1.22A16.28,16.28,0,0,0,76.46,53c-.07-.07-.28.13-.38.22-4.12,3.6-8.88,7-16.72,6.6a74.75,74.75,0,0,0,7.53-2.08c4.57-1.74,8.49-4.42,10.41-8.87A16,16,0,0,0,78,39.37a18.66,18.66,0,0,1-4.85,9.87,16.15,16.15,0,0,1-9.32,5.45c5-2.38,9.4-5.78,11.58-11.06A15.76,15.76,0,0,0,76,34a9.52,9.52,0,0,0-5-6.34,17.55,17.55,0,0,1,1.16,6.23,21.59,21.59,0,0,1-1,6.41,15.89,15.89,0,0,1-5.16,7.79,2.27,2.27,0,0,1-1.15.7,23.15,23.15,0,0,0,4.31-6.59A19.83,19.83,0,0,0,71,33a9,9,0,0,0-2-5.23,6,6,0,0,0-5-2.29c.21.36.5.66.74,1,1.72,2.63,2,7.05,1.27,11a21.25,21.25,0,0,1-4.64,9.83c0,.06-.18.13-.11.22a1.49,1.49,0,0,1,2.07.12c1.13,1.29.29,4.57-.4,5.64.32,0,.35,0,.4.22.16.55-.44,1.34-.66,1.7a9.07,9.07,0,0,1-3.53,3.6,6.13,6.13,0,0,1-2.45,2.63,7,7,0,0,1-4.41,1.34c-.09,1-1.42,1.17-2.27,1.3a17.46,17.46,0,0,1-5.45,0,7.48,7.48,0,0,1-2.26-.67c-.29-.16-.56-.53-.93-.48-.2,0-.36.32-.48.45-.68.77-1.55,0-2-.71-.52-.89-.66-2.41,0-2.82,0,.28,0,.68,0,1,.05.79.48,2.34,1.29,2.22.44-.06.35-.71.86-.78a1.76,1.76,0,0,1-.15-1.78,2.42,2.42,0,0,0,.67,1.63c1.46,1.52,6.24,2,9.06,1.26.38-.1.87-.17,1-.59-.23-.2-.54-.13-.77-.22a5.15,5.15,0,0,1-1.42-1,3.66,3.66,0,0,1-1.12-1.3,6.87,6.87,0,0,0,3,1.7,6.25,6.25,0,0,0,4.85-.89c.83-.55,1.73-1.13,2-2a3.23,3.23,0,0,1-3-.6c.6.05,1,.26,1.6.26,2.28,0,4-1.77,5-3.11a3.52,3.52,0,0,0,.9-1.78c-1.31.66-2.83,1.89-4.83,1.74,1.42-.68,3.06-1,4.27-2.34a4.85,4.85,0,0,0,1-2c.32-1.16.45-3.78-1.07-3.67a3.49,3.49,0,0,0-1.18.63c-1.15.77-2.19,1.61-3.28,2.3a21.5,21.5,0,0,1-5.37,2c2.14.38,2.75,4.06,1.15,5.57s-5.62,2.12-7.46.51a5.36,5.36,0,0,1-2.07,1.16,3.8,3.8,0,0,1-2.72.14c2.69-.19,4.39-1.25,5.21-3.23a5.6,5.6,0,0,0-.19-4.48C45,50.08,41.48,49,38.73,50.5a16.7,16.7,0,0,0-2.26,7.75c-1-5.89,2.07-9.52,4.7-12.46,2.8-3.14,6.28-5.67,6.76-11,.61.24.8,1,1,1.59.12.32.24.64.33,1s.11.74.4.92c-.15-1.52,0-3.35-.13-4.86a7.86,7.86,0,0,0-1-3.15c.63.25.93.95,1.3,1.52a5.47,5.47,0,0,0,1,1.15c.09.1.18.29.33.22-.66-1.46-1-3-1.71-4.41a10.05,10.05,0,0,0-1.93-2.64,4,4,0,0,1-.75-.73,6,6,0,0,0,2.53.29,55.05,55.05,0,0,0-4.86-2.63,14.65,14.65,0,0,0-6.08-1.41c-.15-.95.66-1.63.56-2.42a3.13,3.13,0,0,0-2.19.41,6,6,0,0,0-2.75,2.9c-.31.61-.4,1.4-1,1.82-.35-.27-.22-1-.74-1-.29,0-.52.34-.6.56a4,4,0,0,0,0,1.81A9.12,9.12,0,0,1,32,26.8a6.94,6.94,0,0,0,.15,2c-1,.88-1.33,3.63-.41,4.9.65-.78.87-2.5,2.12-2.71.38-.06.83.07,1.22,0a6.09,6.09,0,0,0,1.74-.55c1.6-.68,3-1.8,4.83-2.11,1.44-.26,2,1.14,2.34,2.15A7.54,7.54,0,0,1,42.77,37,12.58,12.58,0,0,1,40,39.85a41.4,41.4,0,0,1-7.27,4C29,45.7,25.69,48.24,24,52a14,14,0,0,0-1,4.6c-.71,7.74,2.6,12.38,6.19,16.13,1.77,1.83,3.86,3.77,5.8,5.49,1.48,1.32,3,2.62,4.41,4,.39.4,1.16,1.06,1.3,1.56A6.12,6.12,0,0,1,40.43,86c-.5,3.87-1,7.71-1.6,11.43-.18,1.15-.19,2.46-1.07,2.78s-1.5-.25-2.37-.22-1.29.56-1.85.63c-.37.05-.53-.08-.93,0-.28.25-.13.72-.15,1.2.55-.59,1.83-.3,2.89-.42.73-.08,1.28-.32,1.78-.4-.55.89-2.31.68-3.59.84-.44.06-.83.23-1.23.31-.68.11-1.81,0-2.11.51a4.11,4.11,0,0,0-.12,1.66,4,4,0,0,0,.23,1.61c.25.13.51,0,.73.11s.39.45.64.67c.26-.36,0-.88-.22-1.11.46-.46-.17-1,0-1.49s1.18-.4,1.72-.59,1-.57,1.66-.75a7.63,7.63,0,0,0,1.82-.59c-.18.42-.66.47-1,.82-.16.16-.24.43-.41.63-.46.49-1.86.83-2,1.55a4.16,4.16,0,0,0,.71,2.23c.47.59,1.24.56,2,.67a1.11,1.11,0,0,1-.29-.86c-.24-.39-1-.8-1-1.44,0-.37.67-.79,1-1.07s.85-.63,1.22-.9c.88-.65,1.62-1.41,2.33-1.89.52-.33,1.17-.43,1.52-.7s.4-.8.82-.86.84.41,1.45.3c.44-.08.55-.73,1-.56a1.63,1.63,0,0,1-1.49,1,5.64,5.64,0,0,0-.74-.07c-.32.06-.67.63-1.08.89a13.63,13.63,0,0,1-1.47.51c-.5.28-.64,1-1,1.45-.19.22-.67.4-.7.71s.33.86.3,1.37a5.08,5.08,0,0,0-.12.82,1.76,1.76,0,0,0,1.64,1.48c-.53-.34-.6-2.29.19-2.52.13,0,.34,0,.51,0,.86-.19,1-1.25,1.9-1.67a5.89,5.89,0,0,0,.62-.18c.3-.18.48-.57.79-.78s.93-.42,1.3-.67.49-.61.81-.74A2.24,2.24,0,0,1,44,103.17a2.19,2.19,0,0,0-.65.33c-.25.28-.22.83-.38,1.16-.28.57-1.08.84-1.11,1.41,0,.3.24.47.26.77s-.13.47-.11.71c0,.75.58,1.06,1.26,1.11a1.65,1.65,0,0,1-.23-1.49c1.24-.15,1.13-1.71,1.71-2.59a7.59,7.59,0,0,1,1.37-1.22c1.39-1.1,2.93-2.46,5.23-2.08.13.24.06.65.23.85.57,0,1.29-.15,1.11.63a.79.79,0,0,1,.18,1.15c-.08.12-.23.25-.18.33.83,0,1-.52,1.38-1,.18-.24.44-.36.48-.67a1.14,1.14,0,0,0-.26-.8C54,101.17,53.66,99.92,53.12,99.65ZM82,55.13a27.69,27.69,0,0,0,1.85-9.64c.75,7.77-2.26,13.12-5.79,17.17a30.5,30.5,0,0,1-14.06,9C71.8,68,78.74,63.34,82,55.13ZM41.14,103.06c-.25.32-.25.57-.49.74-.56.39-1.57-.16-2,.34a1,1,0,0,1,.86-.71c.23,0,.45.12.69.07.52-.1.89-1,1.35-1.37,1-.79,2.73-.48,3.18-1.67C44.4,102.09,42.09,101.83,41.14,103.06Zm4.19-3.94a1.33,1.33,0,0,1-1.19.34c-.2-.1-.12-.31-.33-.41-.77,0-1.72.23-2.52.15-.2,0-.66-.12-.75-.3a3.05,3.05,0,0,1,.08-1.18c.14-1.15.29-2.41.47-3.45A5.85,5.85,0,0,0,44,93.83a2,2,0,0,0,.82-1c-1.39.12-2.8,0-3.45-.71.54-2.19.85-4.62,1.34-6.86,1.41.69,3.76.41,3.85-1.3a2.72,2.72,0,0,1-1.44.41,2,2,0,0,1-1.14-.45,18.94,18.94,0,0,1-1.83-2.25c-.28-.35-.59-.7-.93-1.12s-.69-1-1-1.07-.88.2-1.29.07a9,9,0,0,1,1.66-.78A29.25,29.25,0,0,0,38.51,76c-.85,0-1.71,0-2.6,0a22.47,22.47,0,0,1,3.64-1c0,.17-.43.45-.48.74a33.74,33.74,0,0,0,7.29,7.27c.31.24,1,.71,1.12,1A8.55,8.55,0,0,1,47.22,86c-.1.65-.29,1.26-.37,1.79C46.27,91.48,45.92,95.45,45.33,99.12Z" style="fill: #1f286f"/>
        <path d="M42,31.46c.15.6,0,2.19.67,2.23a.72.72,0,0,0,.55-.3c.82-1.09.08-4-.75-4.4a1.3,1.3,0,0,0-.77-.12c-1.71.14-2.54,1.38-4.08,1.74a3.13,3.13,0,0,1,1.53,2.6c.11.7.1,1.65.44,2a1.05,1.05,0,0,0,1.33.07c.86-.61,1-2.64.56-3.89-.22-.65-.68-1-.81-1.48C41.53,30,41.82,30.71,42,31.46Z" style="fill: #1f286f"/>
        <path d="M18.77,42.3C17.58,48.69,18.6,56,21.33,59.89a2.67,2.67,0,0,0,.64.7A17.33,17.33,0,0,1,22,55.5a7.3,7.3,0,0,0,.22-1.59c-.08-.65-.38-1.4-.53-2.22a5.05,5.05,0,0,1,0-2.53c.41-.88,1.81-.75,2.12-1.82-2.23-1.08-3.52-3.11-4.94-5C18.86,42.26,18.83,42.25,18.77,42.3Z" style="fill: #1f286f"/>
        <path d="M89,57.5a15.34,15.34,0,0,0-.22,1.82c-.17,1.88-.23,3.66-.52,5.42a9.9,9.9,0,0,1-2.51,5.41c-1.24,1.36-2.93,2.42-4.09,3.86A5.4,5.4,0,0,0,81,79.65s0,.24.19.19a6.52,6.52,0,0,1,1.33-4.64,28.78,28.78,0,0,1,3.22-2.86,11.94,11.94,0,0,0,3.93-8.2c.2-1.9.21-3.8.52-5.52a12.17,12.17,0,0,1,1.94-4.16A15.62,15.62,0,0,0,94,50.31a12.21,12.21,0,0,0,0-5.48s0-.06,0,0a24.21,24.21,0,0,1-.74,3.79,19.86,19.86,0,0,1-2.82,6A9.5,9.5,0,0,0,89,57.5Z" style="fill: #1f286f"/>
        <path d="M22.71,52.73a11.13,11.13,0,0,1,3.44-5.5s.06-.08,0-.07a2,2,0,0,1-1.49.29c-.24,1-1.6,1.1-2.1,1.75C21.84,50.06,22.45,51.8,22.71,52.73Z" style="fill: #1f286f"/>
        <path d="M95.6,48.64a44,44,0,0,1-1.78,4.23c-.67,1.27-1.46,2.47-2.12,3.78-1.39,2.76-.9,6.78-1.7,10.09s-2.83,5-4.87,6.94c-1,1-2.17,1.77-2.74,3.16a8.25,8.25,0,0,0-.52,2.4,19.45,19.45,0,0,1-.2,2.78,3,3,0,0,1-3.37,2.31,4,4,0,0,1-1.59-.64c-.26-.18-.83-.71-.71-1.15s.68-.44,1.12-.33c.75.18,1.4.26,1.56-.48.22-1.06-1.12-1.9-2.27-1.86a2.4,2.4,0,0,0-2,1.49,3.09,3.09,0,0,0,.85,3,3.87,3.87,0,0,0,2.82,1.26,4.42,4.42,0,0,0,4.71-3.45c.18-.9.1-2,.19-3,.2-2.64,1.71-3.65,3.19-5a14.19,14.19,0,0,0,4.27-5.71,17.86,17.86,0,0,0,.73-4.27c.16-1.52.35-3,.53-4.45.54-4.22,4-6.41,3.92-11C95.62,48.65,95.62,48.64,95.6,48.64Z" style="fill: #1f286f"/>
        <path d="M46.33,58.17c2.28,1.53,7,.81,7.27-2.07.25-2.45-1.58-3.25-3.48-3.64,1.57-.46,3.67-.86,5.26-1.48.51-.2,1.28-.42,1.34-.93.09-.79-.63-1-1.41-.89-1.48.13-3,.62-4.64.89a22.94,22.94,0,0,1-5.12.33c1.81.87,2.57,4.91,1.37,7C46.76,57.69,46.43,57.89,46.33,58.17Z" style="fill: #1f286f"/>
        <path d="M5.75,63.71c1.68,3.2,2.34,6.93,3.78,10.34a15,15,0,0,0,6.64,7.49,68,68,0,0,0,7.28,3.3,9.38,9.38,0,0,1,3.56,2,10,10,0,0,1,3.9-3.23c.4-.22,1.28-.5,1.51-.85.68-1-.55-1.83-1.45-1.74-1.37.12-2.48,1.48-3.29,2.29-.2.19-.73.87-1,.89a4,4,0,0,1-1.18-.48c-1.25-.51-2.63-1-3.64-1.48-3.08-1.32-6.26-3-8.31-5.27a13.69,13.69,0,0,1-2.41-4.42C9.9,69.27,8.82,65.71,7.2,62.88a27.86,27.86,0,0,0-2.79-4A11.5,11.5,0,0,0,0,55.21a17.41,17.41,0,0,0,2.93,4.26A26.93,26.93,0,0,1,5.75,63.71Z" style="fill: #1f286f"/>
        <path d="M29.67,92.11a4,4,0,0,1-1.48-1.81c-.39-.76-.62-1.64-1-2.34a3.72,3.72,0,0,0-1.56-1.48,40,40,0,0,0-4.53-1.89c-4.6-1.86-8.76-3.94-11.16-8.13-1.67-2.91-2.4-6.36-3.44-9.38a15.55,15.55,0,0,0-5.17-7.72s0,0,0,0c1.7,3,3.26,5.53,4.08,9.12A28.3,28.3,0,0,0,9,78.06c3.09,4.53,8.58,6.79,13.89,9.08a18.24,18.24,0,0,1,2.29,1c1,.61,1.36,1.95,1.89,3a4.72,4.72,0,0,0,2.12,2.27c2.42,1.18,5-.43,5.9-2a3.78,3.78,0,0,0-1.42-4.89,3.22,3.22,0,0,0-4.7,1.37,1.71,1.71,0,0,0,1.26,2.37c.85.08,1.28-.62,2.08-.29a1,1,0,0,1,.48,1C32.69,92.22,30.88,92.7,29.67,92.11Z" style="fill: #1f286f"/>
        <path d="M86.69,76.46A23.65,23.65,0,0,0,91,71.3c1.54-2.77,1.41-6.78,2.7-9.94,0,0,0,0,0,0C92.32,62.63,92,64.82,91.51,67a15.44,15.44,0,0,1-4.75,7.63c-1,1-2.43,1.92-3,3.23A10.58,10.58,0,0,0,83.5,81,7.28,7.28,0,0,1,83,83.58,5,5,0,0,1,73.55,83a4.3,4.3,0,0,0,1.83,4,6.4,6.4,0,0,0,6.15,0,6,6,0,0,0,3.09-4.49,29.43,29.43,0,0,1,.1-3.45C85,77.79,85.89,77.27,86.69,76.46Z" style="fill: #1f286f"/>
        <path d="M19,103.2c.13-1.28,1.17-2,1.6-3a3.42,3.42,0,0,0,.14-.55,4.82,4.82,0,0,0-3.08-5.56c-2.11-.94-4.75-1.3-5.79-3.12-.45-.81-.65-1.71-1-2.49a18.51,18.51,0,0,0-4.45-6.12A16.37,16.37,0,0,1,3,78.72,49.22,49.22,0,0,0,.45,74.2a0,0,0,0,0,0,0,39.5,39.5,0,0,0,2,4.9,16.32,16.32,0,0,0,3,3.78,19.6,19.6,0,0,1,3,3.71A17.34,17.34,0,0,1,10,90.08a13.12,13.12,0,0,0,.36,1.33c.69,1.53,2.41,2.49,3.94,3.19,1.78.81,4.06,1.33,4.56,3.26.54,2.1-1.26,3.38-1.63,4.71a2.78,2.78,0,0,0,.14,1.86c.16.24.75.78,1.3.52S18.89,103.83,19,103.2Z" style="fill: #1f286f"/>
        <path d="M34.91,94.86a7.3,7.3,0,0,0,2.74-3.56,5.77,5.77,0,0,0,.3-2.78c-.1-.67-.47-2-1.38-1.71-.41.16-.33,1.13-.29,1.82a5.76,5.76,0,0,1-.93,3.59,5.29,5.29,0,0,1-3.63,2.2,4.82,4.82,0,0,1-4.3-1.71,26.84,26.84,0,0,1-1.68-3c-.78-1.2-2.2-1.59-3.63-2.16a50.09,50.09,0,0,1-7.23-3.26,25.49,25.49,0,0,1-7.27-6.76s0,0,0,0C10.2,83.35,14.93,86.34,21,88.66c1.11.43,2.65.81,3.39,1.56s1,2.1,1.7,3.08a6.06,6.06,0,0,0,3.79,2.49A7.15,7.15,0,0,0,34.91,94.86Z" style="fill: #1f286f"/>
        <path d="M18.22,98.31c-.14-1.14-1.07-1.57-2-2-3-1.53-6-2.41-6.86-6A14.17,14.17,0,0,0,5.83,84s0,0,0,0a46.82,46.82,0,0,1,2.52,5.34c.22.63.28,1.32.48,2.12a7.08,7.08,0,0,0,3.49,4c.7.44,1.53.91,2.37,1.38s1.9.82,2.08,1.66c.28,1.32-1,1.88-.92,2.94C17.33,101.82,18.37,99.7,18.22,98.31Z" style="fill: #1f286f"/>
        <path d="M94,86.33c-.61.91-1.43,1.84-2.15,2.82a9,9,0,0,1-2.34,2.52A14.87,14.87,0,0,1,86,93a5.41,5.41,0,0,0-2.85,2c-.62.85-1,1.84-1.53,2.7a11.27,11.27,0,0,1-1.85,2.41c-.66.65-1.49,1.27-2.19,2A6.26,6.26,0,0,0,76,104.83a1.7,1.7,0,0,0,.19,1.2,2.22,2.22,0,0,0,1.38-.82,24,24,0,0,0,3.15-3.67,17,17,0,0,0,1.78-2.74,16.33,16.33,0,0,1,1.59-3c1.6-2.08,4.93-2.32,7-4a.46.46,0,0,0,.07-.07,10.34,10.34,0,0,0,1.67-2.49A9.85,9.85,0,0,0,94,86.37S94,86.33,94,86.33Z" style="fill: #1f286f"/>
        <path d="M63.17,97.64a9.57,9.57,0,0,1,3.23-.44,7.5,7.5,0,0,0,4.53-1.67c1-.92,1.18-2.12,1.52-3.68a6.77,6.77,0,0,1,.67-1.92c.42-.81,1.1-1.34,1.11-2.45,0,0,0,0,0,0-.4.43-.8.9-1.19,1.3a15.35,15.35,0,0,0-1.18,1.07,3.67,3.67,0,0,0-.66,1.71,8.2,8.2,0,0,1-.38,1.86c-1,2.18-3.54,2.62-6.49,2.81a5.79,5.79,0,0,0-2.27.3c-.39.21-.68.72-1,1.08a6,6,0,0,1-4.49,1.86,6,6,0,0,0,5.75-1C62.57,98.19,62.8,97.81,63.17,97.64Z" style="fill: #1f286f"/>
        <path d="M61.58,95.67a8.76,8.76,0,0,1,2.18-.18c3.18-.23,5.95-.87,6.39-3.78,0,0,0,0,0,0a6.81,6.81,0,0,1-5.23,2.52c-.76,0-1.59,0-2.48,0a4.56,4.56,0,0,0-2,.67c-1,.65-1.49,1.69-2.45,2.19-2.42,1.27-5.54-.18-5.64-2.75-1.26,4.31,4.26,5.1,6.83,3.34C60,97.09,60.57,96,61.58,95.67Z" style="fill: #1f286f"/>
        <path d="M20.51,101.77a3.43,3.43,0,0,1,2.26.4,8.16,8.16,0,0,0,.64-3.34,7,7,0,0,0-2.67-5,10.4,10.4,0,0,0-6-1.74s0,0,0,0a20.81,20.81,0,0,0,2.7,1,7.19,7.19,0,0,1,2.34,1.19,5.22,5.22,0,0,1,1.86,3.55,5.94,5.94,0,0,1-.78,3.23C20.67,101.35,20.49,101.58,20.51,101.77Z" style="fill: #1f286f"/>
        <path d="M54.82,92.52a1.74,1.74,0,0,0-1.62,1.82,2.28,2.28,0,0,0,2.37,2.26c2.06.14,2.61-1.38,4.07-2.26s3.26-.67,5-.85a2.16,2.16,0,0,0,1.11-.41c-2.12,0-4.12-.26-5.85.15a5,5,0,0,0-2,1.08,3.22,3.22,0,0,1-2.07,1A1.66,1.66,0,0,0,54.82,92.52Z" style="fill: #1f286f"/>
        <path d="M68.89,100.8a10.32,10.32,0,0,1,1.77,1.37A10.93,10.93,0,0,1,75,97.46C71.74,97.08,70.76,99.58,68.89,100.8Z" style="fill: #1f286f"/>
        <path d="M23.48,102.5c0,.26.35.59.49.82a4.5,4.5,0,0,1,.48,1.45c1.06-1.44.81-4.53-.37-5.65a5,5,0,0,1-.16,2.16A7.38,7.38,0,0,0,23.48,102.5Z" style="fill: #1f286f"/>
        <path d="M21.78,107.66c1.42,0,2.25-1.33,2.08-2.89a3,3,0,0,0-2.57-2.42c-.73-.07-1.13.05-1.41.48,1.11-.12,2.17.14,2.19,1a1.18,1.18,0,0,1-.29.82c-.43.42-1.19.07-1.8.36a1.1,1.1,0,0,0-.35,1.19A2.27,2.27,0,0,0,21.78,107.66Z" style="fill: #1f286f"/>
        <path d="M18.43,58.65A24,24,0,0,1,4.71,47.53c-.2-.37-.31-.82-.59-1a18.31,18.31,0,0,0,1.52,6.87,13.13,13.13,0,0,0,3.75,4.75A24.1,24.1,0,0,0,21,63.48c-6,.22-9.74-2.3-12.95-4.86a15.94,15.94,0,0,0,5.6,6.53,12.67,12.67,0,0,0,4,2,23.12,23.12,0,0,0,5.52.49c-.52.82-2,.85-3.22.85a16.19,16.19,0,0,0,5.28.92,22.72,22.72,0,0,1-2.53-5,14.42,14.42,0,0,0-.56-2,5.47,5.47,0,0,0-.52-.67,20.35,20.35,0,0,1-2.9-5.67,29.89,29.89,0,0,1-1-13A5.37,5.37,0,0,0,18,41.74c0-.34-.5-.88-.7-1.26A21.29,21.29,0,0,1,15.14,28.8c.34-4.41,1.7-8.56,4.31-10.72.17-.15.48-.25.43-.42a8.38,8.38,0,0,0-6,2.16,8.91,8.91,0,0,0-3,5.16A26.06,26.06,0,0,0,11.8,37a30.12,30.12,0,0,0,4.49,9.2A22.4,22.4,0,0,1,10,35.14c-1.13-4.57-1.3-11.28,1.29-14.47.07,0,.31-.23.15-.26C8.4,21.3,6.65,24,5.93,27.2a20.75,20.75,0,0,0,.75,10.73c2,6.12,5.88,10.82,9.94,14.68a24.08,24.08,0,0,1-7.83-7.56,26,26,0,0,1-3.63-7.91c-.29-1.06-.38-2.14-.6-3.26-.31.16-.29.59-.36.89A17.76,17.76,0,0,0,3.67,38C3.29,43.2,5.31,46.71,7.38,49.5A34.85,34.85,0,0,0,18.43,58.65Z" style="fill: #1f286f"/>
        <path d="M92.21,85.32c-.81,1-1.55,2-2.25,2.94a6.79,6.79,0,0,1-2.82,2.37,15.48,15.48,0,0,1-1.89.71,14.24,14.24,0,0,0-2,.62,4.27,4.27,0,0,0-1.86,2,19.62,19.62,0,0,1-2.78,4C77,99.55,75,100.39,73.82,102.2a6.38,6.38,0,0,0-.82,2.67c-.09.85-.38,2.76.22,3a1.25,1.25,0,0,0,1.3-.52c.4-.74,0-1.7.15-2.55.32-2.14,2.36-3.59,3.67-4.79A14.85,14.85,0,0,0,81,97c.34-.54.67-1.16,1-1.79a7.44,7.44,0,0,1,1.11-1.7c.79-.77,2.25-1,3.31-1.37a9.62,9.62,0,0,0,4.4-3.27c.37-.51.64-1.06,1-1.6,1-1.61,1.92-3,3-4.63,0,0,0,0,0,0A26,26,0,0,0,92.21,85.32Z" style="fill: #1f286f"/>
        <path d="M74.67,99.9c.52-.38,1.08-.63,1.56-1A12.77,12.77,0,0,0,80,95.12c.81-1.35,1.4-2.73,2.59-3.6,1.79-1.3,4.66-1.12,6.12-2.93,0,0,0,0,0,0-1.58.51-3.41,1.13-5,1.63a5.7,5.7,0,0,0-2.41,1.07,16.45,16.45,0,0,0-2.11,3,10.84,10.84,0,0,1-2.3,2.82c-.79.58-1.62,1-2.34,1.48a9.08,9.08,0,0,0-3.71,5.93,10.9,10.9,0,0,1-.36,1.57,2.85,2.85,0,0,1-1.42,1.4c-.31.16-.69.23-.74.56-.13.86,1.26,1.3,2.11,1.18A2.37,2.37,0,0,0,72,107.66c.25-.92,0-2.47.22-3.52A7.23,7.23,0,0,1,74.67,99.9Z" style="fill: #1f286f"/>
        <path d="M24.37,97.68c1.17,1.76,2.44,5.27.93,7.49-.25.38-.69.52-.89.9a6,6,0,0,0-.26.74,2.33,2.33,0,0,1-1.63,1.44,3.7,3.7,0,0,1-2.41-.49,3.11,3.11,0,0,0,.74.75c1.57.95,4,.14,4.94-.82,1.15-1.15,1.48-3.1,1.29-5.15A6.65,6.65,0,0,0,24.37,97.68Z" style="fill: #1f286f"/>
        <path d="M69.52,104.87a1.56,1.56,0,0,0-1.71-1.77c-.82.15-.78,1.68-1.56,1.77a1,1,0,0,1-1-.73c-.17-.92.69-1.68,1.42-2a3.81,3.81,0,0,1,3.07.19,4.2,4.2,0,0,0-3.56-1.49c-1.7.2-3.68,1.76-3.6,3.64s2.41,2.91,4.16,2.74A3.32,3.32,0,0,0,69.52,104.87Z" style="fill: #1f286f"/>
        <path d="M32.5,14.4a6.94,6.94,0,0,0,5,1.67,18.09,18.09,0,0,0,3.11-.18c.92-.17,1.8-.44,2.71-.63a57.75,57.75,0,0,1,18-1.45c12.07,1.28,17.73,9,19.89,20.1C78.34,26,75,18.66,66.25,16.55c-3.41-.81-8.35-.32-8.64,3.08A3.37,3.37,0,0,0,59.17,23a9.15,9.15,0,0,0,3.71,1.26c1.57.24,3.22.09,4.71.26,4.3.51,7,3.37,8.78,6.08a29,29,0,0,1,2.91,5.79,5.8,5.8,0,0,0,.36.89c.18.11.34-.24.53-.41,1.46-1.32,3.86-.72,5.29.19,2.47,1.54,3.68,4,4.12,7.49a61.88,61.88,0,0,0,2.23-13.35,41.19,41.19,0,0,0-1.52-14C88.44,11.35,85.18,6.76,80.08,4.06c-1.46-.78-4.14-1.93-6.23-1.15a1.87,1.87,0,0,0-1.11.92c-.51,1.39.66,2.25,1.37,2.94,5.06,4.78,9.25,10.38,11.21,18.17a30,30,0,0,1,.82,9.64,35.35,35.35,0,0,0-7-20A35.71,35.71,0,0,0,48.44,0c-1.08.06-2.17.17-3.15.31-4.75.65-8.9,2.32-11.5,5.15A10.74,10.74,0,0,0,31.2,9.58,4.43,4.43,0,0,0,32.5,14.4Zm36.39,7.12a21.16,21.16,0,0,0-5.64-1.29,12.31,12.31,0,0,1,10.38,3.49A20.27,20.27,0,0,1,79,32.28C76.7,27.64,73.84,23.54,68.89,21.52ZM80.46,9c3.4,2.15,5.49,6,6.93,10.35a35.67,35.67,0,0,1,1,15.47,45.3,45.3,0,0,0-1.6-15.25A25,25,0,0,0,80.46,9ZM44,7.84a29.83,29.83,0,0,1,7.08-1.11,31.22,31.22,0,0,1,19.55,4.81c6.58,4.36,11.11,10.72,12.83,19.85C81,23,76.74,16.36,69.92,12.22A34.26,34.26,0,0,0,50.34,7.36a49.87,49.87,0,0,0-5.64.48L43.81,8C43.4,8,43.57,8,44,7.84Z" style="fill: #1f286f"/>
      </g>
    </g>
  </g>
</svg>
