<svg id="レイヤー_1" data-name="レイヤー 1" xmlns="http://www.w3.org/2000/svg" viewBox="0 0 283.46 76.54"><defs><style>.cls-1{fill:#b60014;}.cls-2{fill:#fff;}</style></defs><rect class="cls-1" width="283.46" height="76.54"/><path class="cls-2" d="M224.19,438a15.6,15.6,0,0,1-8.09-4.79c-2.87-2.9-13.12-15-13.12-15l16.36-15.52h-8.86l-14.93,14.59c-.64.64-1,1.06-1.37,1.47h-.08c0-.49,0-1,0-1.51V405.55a2.87,2.87,0,0,0-2.88-2.88h-7.75a.27.27,0,0,0-.13.52,3,3,0,0,1,2.09,3.26v31.88h8.67V421.9c0-.42,0-.74,0-1.22h.08c.31.49.82,1,1.37,1.72,0,0,9.11,10.71,10.08,11.72,3.87,4,9.28,5.46,18.52,4.58.51-.06.51-.59,0-.7" transform="translate(-156.27 -382.23)"/><path class="cls-2" d="M241,401.37c-12,0-20.92,8.38-20.92,19.13s8.17,19.13,20.92,19.13c12,0,20.9-8.38,20.9-19.13s-8.17-19.13-20.9-19.13M241,436c-7.18,0-11.29-7-11.29-15,0-9.23,4.11-15.93,11.29-15.93s11.27,7,11.27,15c0,9.48-4.1,15.94-11.27,15.94" transform="translate(-156.27 -382.23)"/><path class="cls-2" d="M394.53,438.33l-5.34-32.54a3.79,3.79,0,0,0-3.64-3.12h-5L371.8,423c-.4.92-.66,1.64-.85,2.16h0c-.18-.56-.44-1.22-.79-2L362.4,405h0a3.79,3.79,0,0,0-3.46-2.31h-7.67a.27.27,0,0,0-.13.52c1.05.47,1.79,1.24,1.48,3.24l-5.24,31.9h5.52l3.49-22.51c.16-1.14.37-2.54.43-3.25h.05c.34.93.78,2,1.28,3.19l9.62,22.57h2.86l9.73-23c.56-1.37.94-2.33,1.19-3.06h0c.11.88.28,2.22.49,3.57l3.61,22.45h8.84" transform="translate(-156.27 -382.23)"/><path class="cls-2" d="M407.64,402.67h-8.1a.27.27,0,0,0-.14.52,3,3,0,0,1,2.1,3.26v31.88h9V405.55a2.88,2.88,0,0,0-2.88-2.88" transform="translate(-156.27 -382.23)"/><path class="cls-2" d="M296.53,402.67v20.38c0,1,0,1.63.08,2.53h-.08c-.69-1-1.46-2-2.58-3.28l-15.33-17.73a4.88,4.88,0,0,0-4.37-1.9h-7.8a.27.27,0,0,0-.13.52,3,3,0,0,1,2.1,3.26v31.88h5.83V415.4c0-1.23-.05-2.19-.09-3.2h.09c1.07,1.44,2.56,3.36,3.75,4.75l18.41,21.38h3.07a2.88,2.88,0,0,0,2.88-2.88V402.67h-5.83" transform="translate(-156.27 -382.23)"/><path class="cls-2" d="M335.26,438.33h9.82l-15.51-33.46a3.72,3.72,0,0,0-3.4-2.2H319.4c-.38,0-.42.38-.14.52a2.37,2.37,0,0,1,.8,3.07l-15,32.07h6.63l3.73-8.21h16.19l3.65,8.21m-17.88-12.52,5.59-12.3c.27-.62.51-1.18.6-1.47h.09c.11.35.35.89.61,1.5l5.43,12.27Z" transform="translate(-156.27 -382.23)"/></svg>
