<svg height="44.89" viewBox="0 0 261.92 44.89" width="261.92" xmlns="http://www.w3.org/2000/svg"><path d="m24.67 37.91-3.03 6.99h103.11l3.03-6.99z" fill="#0081cc"/><path d="m124.75 44.9h103.12l3.03-6.99h-103.12z" fill="#6fba2c"/><path d="m346.58 195.74-5.93 19.54-6.24-19.54h-9.5l1.36 3.34a8.18 8.18 0 0 0 -7.47-4.14 9.52 9.52 0 0 0 -8.58 4.67c-1-2.55-3.76-4.67-7.74-4.67a9.52 9.52 0 0 0 -8.58 4.67c-1-2.55-3.77-4.67-7.74-4.67a9.52 9.52 0 0 0 -8.58 4.67c-1-2.43-3.63-4.67-7.79-4.67a9.24 9.24 0 0 0 -7.95 4.56v-3.76h-8.84v25.33c-.59-.27-2.19-1.4-2.19-5.79v-10.6c0-6.93-5-9.63-12.19-9.63s-11.56 2.79-12.29 8.46h8.53a3.28 3.28 0 0 1 3.52-2.64c2 0 3.06.84 3.06 2.35s-.62 2-2.49 2.64c-1.7.54-5.57.72-9.1 1.75a6.8 6.8 0 0 0 -3.92 2.54 7.45 7.45 0 0 0 -3.48-4.86c-3-2-8.18-3-12-3.78s-4-2-4-2.84.89-2.48 4.25-2.48c4.29 0 4.62 2.87 4.62 2.87h9.32c-.3-4.48-3.83-8.85-13.63-8.85-11.8 0-13.77 6.09-13.77 9.29a7.55 7.55 0 0 0 3.84 6.85c2.47 1.61 8.57 2.89 12 3.67s3.62 2.28 3.62 3.17-.84 2.81-5 2.81c-5.51 0-5.9-3.72-5.9-3.72h-8.5l-6.7-17.28h-12l-6.62 17.1v-6.74h-13.6v5.5h6.33c0 2.29-1 5.23-5.82 5.23-3.86 0-6.68-3.08-6.68-7.72s3-7.68 6.83-7.68 4.87 2 4.87 2h7.84c-.73-3.92-4.89-8.41-12.79-8.41-5.83 0-10.28 2.55-12.79 6.44v-5.71h-22v13.68a9 9 0 0 0 -5.09-4.45c-2.75-1.17-8.08-2.21-11.31-2.85s-3.8-1.71-3.8-2.69 1-2.51 4.58-2.51c4.35 0 4.94 2.82 4.94 2.82h9c-.25-4.38-3.65-8.83-14-8.83-12.52 0-14.19 6.59-14.19 9.3a7.57 7.57 0 0 0 4.45 7.07c3.2 1.69 9.36 2.75 12.31 3.46s3.85 1.64 3.85 3-1.37 2.92-5.95 2.92c-5.43 0-6-3.66-6-3.66h-9.25c.18 4.78 4.19 10 15.37 10 8.43 0 13.36-3.19 15-6.81v6h22.5v-5.26c2.22 3.59 6.3 6 12.3 6a14.21 14.21 0 0 0 10.77-4.35l-1.4 3.57h8.92l1.76-5h11.26l1.75 5h8.74l-1.39-3.53c1.87 2.29 6 4.31 12.3 4.31 7.69 0 11.5-2.81 13.25-5.6.79 3.74 4.76 5.46 8.26 5.46 4.19 0 7.4-1.22 9-3.3a11.14 11.14 0 0 0 1.51 2.66h18.49v-15.49a3.81 3.81 0 0 1 3.68-4.12c2 0 3.82 1.2 3.82 4.12v15.69h8.9v-15.69a3.81 3.81 0 0 1 3.68-4.12c2 0 3.81 1.2 3.81 4.12v15.69h8.83v-15.69a3.81 3.81 0 0 1 3.69-4.12c2 0 3.81 1.2 3.81 4.12v15.69h8.9v-15.69a3.81 3.81 0 0 1 3.68-4.12c2 0 3.82 1.2 3.82 4.12v15.69h8.75v-17.05a12.75 12.75 0 0 0 -.4-3.27l8.93 22.85c.65 1.68.53 4-2.77 4h-3.3l-3 6.9h7c3.18 0 8.4-.05 11.17-8.6l10.52-30.71zm-200.58 19.78h-13.27v-4.65h9.61v-5.5h-9.61v-4.37h13.27a14.12 14.12 0 0 0 -1.83 7.09 15.37 15.37 0 0 0 1.83 7.43zm34.92-4.52 3.65-10.38 3.64 10.38zm60.56 1.16a4.45 4.45 0 0 1 -4.72 4.49c-2.17 0-3.15-1.27-3.15-2.38a2.67 2.67 0 0 1 2.06-2.71c1.57-.52 3.84-.78 5.81-1.8z" fill="#231815" transform="translate(-93.71 -190.21)"/></svg>