<svg version="1.1" xmlns="http://www.w3.org/2000/svg" xmlns:xlink="http://www.w3.org/1999/xlink" x="0px" y="0px"
	 width="283.46px" height="51.1px" viewBox="0 0 283.46 51.1" style="overflow:visible;enable-background:new 0 0 283.46 51.1;"
	 xml:space="preserve">
<defs>
</defs>
<g>
	<path d="M30.56,10.83c-0.06,0-0.12,0-0.17,0.01l-18.07,1.81c-0.87,0.09-1.55,0.82-1.55,1.71v15.23c0,5.94,4.82,10.76,10.76,10.76
		c5.94,0,10.76-4.82,10.76-10.76V12.55C32.28,11.6,31.51,10.83,30.56,10.83z M37.87,0c-0.17,0-0.34,0.01-0.51,0.03
		c0,0-32.71,3.27-32.71,3.27C2.04,3.55,0,5.76,0,8.44v21.15C0,41.47,9.63,51.1,21.52,51.1s21.52-9.63,21.52-21.52V5.16
		C43.04,2.31,40.72,0,37.87,0z M38.73,29.58c0,9.51-7.71,17.21-17.21,17.21S4.3,39.09,4.3,29.58V9.19c0-0.89,0.68-1.62,1.55-1.71
		l30.99-3.1c0.06-0.01,0.12-0.01,0.17-0.01c0.95,0,1.72,0.77,1.72,1.72L38.73,29.58z"/>
	<g>
		<path d="M165.29,2.32h-6.64c-0.61,0-1.11,0.49-1.11,1.11v28.46L144.34,3.6c-0.36-0.78-1.14-1.28-2-1.28h-6.91
			c-1.22,0-2.21,0.99-2.21,2.21v43.14c0,0.61,0.5,1.11,1.11,1.11h6.64c0.61,0,1.11-0.5,1.11-1.11V19.21l13.2,28.3
			c0.36,0.78,1.14,1.28,2.01,1.28h6.91c1.22,0,2.21-0.99,2.21-2.21V3.43C166.4,2.82,165.9,2.32,165.29,2.32z"/>
		<path d="M203.64,2.32H178.2c-0.92,0-1.66,0.74-1.66,1.66v43.14c0,0.92,0.74,1.66,1.66,1.66h25.44c0.61,0,1.11-0.5,1.11-1.11v-6.08
			c0-0.61-0.5-1.11-1.11-1.11h-17.14V10.62h17.14c0.61,0,1.11-0.5,1.11-1.11V3.43C204.74,2.82,204.25,2.32,203.64,2.32z"/>
		<path d="M122.33,21.13h-11.61c-0.61,0-1.11,0.49-1.11,1.11v6.08c0,0.61,0.5,1.11,1.11,1.11h11.61c0.61,0,1.11-0.5,1.11-1.11v-6.08
			C123.43,21.62,122.94,21.13,122.33,21.13z"/>
		<path d="M98.72,2.32h-7.74c-0.61,0-1.11,0.49-1.11,1.11v29.86c0,4.76-2.24,7.19-6.64,7.19c-4.4,0-6.64-2.42-6.64-7.19V3.43
			c0-0.61-0.5-1.11-1.11-1.11h-7.74c-0.61,0-1.11,0.49-1.11,1.11v29.86c0,11,5.6,16.59,16.59,16.59s16.59-5.6,16.59-16.59V3.43
			C99.82,2.82,99.33,2.32,98.72,2.32z"/>
		<path d="M282.36,2.32H253.6c-0.61,0-1.11,0.5-1.11,1.11v6.08c0,0.61,0.5,1.11,1.11,1.11h9.4v37.05c0,0.61,0.5,1.11,1.11,1.11h7.74
			c0.61,0,1.11-0.5,1.11-1.11V10.62h9.4c0.61,0,1.11-0.5,1.11-1.11V3.43C283.46,2.82,282.97,2.32,282.36,2.32z"/>
		<path d="M190.37,21.13c-0.61,0-1.11,0.5-1.11,1.11v6.08c0,0.61,0.5,1.11,1.11,1.11h11.61c0.61,0,1.11-0.5,1.11-1.11v-6.08
			c0-0.61-0.5-1.11-1.11-1.11H190.37z"/>
		<path d="M246.59,2.32h-8.16c-0.64,0-1.23,0.37-1.5,0.96l-6.47,13.85L224,3.28c-0.27-0.59-0.86-0.96-1.5-0.96h-8.16
			c-0.83,0-1.37,0.89-0.97,1.63l11.52,21.6l-11.52,21.6c-0.39,0.74,0.14,1.63,0.97,1.63h8.16c0.64,0,1.23-0.37,1.5-0.96l6.47-13.86
			l6.47,13.86c0.27,0.59,0.86,0.96,1.5,0.96h8.16c0.83,0,1.37-0.89,0.97-1.63l-11.52-21.6l11.52-21.6
			C247.96,3.21,247.43,2.32,246.59,2.32z"/>
	</g>
</g>
</svg>
