<svg xmlns="http://www.w3.org/2000/svg" width="266.689" height="85.293" viewBox="0 0 266.689 85.293"><path d="M432.285,217.049l.1,6.819,9.98-.456a95.5,95.5,0,0,0-20.8,13.207A92.04,92.04,0,0,0,395.9,270.828c-1.1-8.088-3.534-18.145-8.833-26.244-8.549-13.067-23.049-20.754-41.933-22.23-16.492-1.291-35.441,2.314-53.357,10.144a119.868,119.868,0,0,0-47.287,36.528c-1.937,2.522-3.614,4.931-5.06,7.168v-4.127H231.62v28.219h7.808V292.68A86.594,86.594,0,0,1,250.9,273.527a112.1,112.1,0,0,1,44.011-33.86c29.809-13.029,69.314-15.706,85.611,9.2,6.958,10.634,8.21,25.992,8.412,32.718v13.956c0,.025-.008.049-.012.074l.012,0v4.668h7.808v-4.036c3.319-21.774,13.27-39.743,29.588-53.412a88.033,88.033,0,0,1,19.635-12.457l-4.624,6.466,5.768,3.641,16.832-24.649Z" transform="translate(-197.248 -215.84)" fill="#d80c18"/><path d="M206.272,278.574H165.718v8.845h15.924V330.3h9.2V287.419h15.429Z" transform="translate(-165.718 -245.854)" fill="#d80c18"/><path d="M298.609,333.832a15.4,15.4,0,0,0-1.405-5.06c-2.362-4.948-6.747-6.747-12.032-6.747-8.6,0-13.55,6.522-13.55,15.012,0,9.446,3.879,14.9,13.55,14.9,6.578,0,12.032-2.305,12.763-9.277h-7.59c-.787,2.586-2.249,3.655-5.173,3.655-4.329,0-4.835-3.43-4.835-7.084h18.5A42.363,42.363,0,0,0,298.609,333.832Zm-18.272-.225c.112-3.092.956-5.96,4.835-5.96,4.1,0,4.948,2.868,4.948,5.96Z" transform="translate(-216.386 -266.643)" fill="#d80c18"/><path d="M353.569,322.025c-3.965,0-6.916,1.391-8.659,3.977l-.112-.168v-2.966h-8.377v28.224h8.433V334.409c-.022-4.536,2.417-6.762,5.06-6.762,4.161,0,5,3.43,5.06,6.466v16.98h8.434V332.708a19.322,19.322,0,0,0-.563-4.5C361.834,324.106,356.38,322.025,353.569,322.025Z" transform="translate(-247.389 -266.643)" fill="#d80c18"/><path d="M428.805,298.509h-8.434v15.63h-.113c-1.575-2.361-4.611-3.365-7.534-3.365-8.771,0-13.213,7.366-13.213,14.956,0,7.253,3.879,14.955,12.145,14.955,3.654,0,6.8-1,8.659-4.1h.113a31.542,31.542,0,0,0,.225,3.252h8.433c-.113-1.856-.281-3.767-.281-5.622ZM414.3,334.841c-4.414,0-6.073-4.782-6.073-9.111s1.659-9.112,6.073-9.112c4.554,0,6.072,5.232,6.072,9.112S418.853,334.841,414.3,334.841Z" transform="translate(-277.574 -255.392)" fill="#d80c18"/><path d="M494.975,333.832a15.391,15.391,0,0,0-1.406-5.06c-2.362-4.948-6.747-6.747-12.032-6.747-8.6,0-13.55,6.522-13.55,15.012,0,9.446,3.879,14.9,13.55,14.9,6.578,0,12.032-2.305,12.763-9.277H486.71c-.787,2.586-2.248,3.655-5.172,3.655-4.329,0-4.835-3.43-4.835-7.084h18.5A42.557,42.557,0,0,0,494.975,333.832Zm-18.273-.225c.112-3.092.956-5.96,4.835-5.96,4.1,0,4.948,2.868,4.948,5.96Z" transform="translate(-310.335 -266.643)" fill="#d80c18"/><path d="M577.072,330.178c0-1.855,1.068-2.53,3.373-2.53,1.911,0,3.711.843,3.824,2.755h7.589c-.393-6.241-5.453-8.378-11.413-8.378-4.948,0-12.088,2.586-12.088,8.49,0,6.578,5,7.759,10.4,9.052,1.687.394,5.735,1.35,5.735,3.6,0,2.193-1.744,3.149-4.048,3.149-2.474,0-4.442-1.237-4.611-3.43H568.02c.113,6.466,5.847,9.052,12.426,9.052,5.229,0,12.763-3.092,12.763-9.277C593.208,332.089,577.072,334.619,577.072,330.178Z" transform="translate(-358.194 -266.643)" fill="#d80c18"/></svg>