<!-- Generator: Adobe Illustrator 25.2.1, SVG Export Plug-In  -->
<svg version="1.1" xmlns="http://www.w3.org/2000/svg" xmlns:xlink="http://www.w3.org/1999/xlink" x="0px" y="0px"
	 width="192.25px" height="72.72px" viewBox="0 0 192.25 72.72" style="overflow:visible;enable-background:new 0 0 192.25 72.72;"
	 xml:space="preserve">
<style type="text/css">
	.st0{fill:#FFFFFF;}
</style>
<defs>
</defs>
<g>
	<g>
		<path class="st0" d="M6.23,68.88c-0.31,0.08-0.66,0.15-1.03,0.2c-0.37,0.05-0.7,0.08-0.99,0.08c-1.02,0-1.79-0.27-2.32-0.81
			c-0.53-0.54-0.79-1.41-0.79-2.6V54.91h1.68v2.73h3.46c0,0,0,0.96,0,1.58c-1.69-0.19-3.46-0.16-3.46-0.16v5.8
			c0,0.52,0.01,0.92,0.04,1.21s0.11,0.56,0.25,0.81c0.13,0.24,0.31,0.41,0.54,0.52c0.23,0.11,0.58,0.16,1.05,0.16
			c0.27,0,0.56-0.04,0.86-0.12c0.3-0.08,0.73-0.23,0.73-0.23V68.88z"/>
		<path class="st0" d="M18.03,63.28c0,1.84-0.44,3.3-1.33,4.36c-0.89,1.07-2.08,1.6-3.56,1.6c-1.5,0-2.69-0.53-3.58-1.6
			c-0.88-1.07-1.33-2.52-1.33-4.36s0.44-3.3,1.33-4.37c0.88-1.07,2.08-1.6,3.58-1.6c1.49,0,2.68,0.54,3.56,1.6
			C17.59,59.99,18.03,61.44,18.03,63.28z M16.33,63.28c0-1.53-0.28-2.66-0.85-3.4c-0.56-0.74-1.35-1.11-2.35-1.11
			c-1.01,0-1.8,0.37-2.36,1.11s-0.84,1.88-0.84,3.4c0,1.48,0.28,2.6,0.85,3.36c0.56,0.76,1.35,1.14,2.36,1.14
			c1,0,1.78-0.38,2.34-1.13C16.05,65.9,16.33,64.77,16.33,63.28z"/>
		<path class="st0" d="M24.26,62.49l4.96,6.49h-2.14l-4.06-5.5l-1.09,1.02v4.48h-1.68V54.89h1.68v7.65l4.84-4.93h2.11L24.26,62.49z"
			/>
		<path class="st0" d="M38.47,57.64h1.76l-6,13.92h-1.79l2.09-4.65l-3.98-9.27h1.82l3.04,7.27L38.47,57.64z"/>
		<path class="st0" d="M50.55,63.28c0,1.84-0.44,3.3-1.33,4.36s-2.07,1.6-3.56,1.6c-1.5,0-2.69-0.53-3.58-1.6
			c-0.88-1.07-1.33-2.52-1.33-4.36s0.44-3.3,1.33-4.37c0.88-1.07,2.08-1.6,3.58-1.6c1.49,0,2.68,0.54,3.56,1.6
			C50.1,59.99,50.55,61.44,50.55,63.28z M48.84,63.28c0-1.53-0.28-2.66-0.84-3.4c-0.56-0.74-1.35-1.11-2.35-1.11
			c-1.01,0-1.8,0.37-2.36,1.11c-0.56,0.74-0.84,1.88-0.84,3.4c0,1.48,0.28,2.6,0.84,3.36c0.56,0.76,1.35,1.14,2.36,1.14
			c0.99,0,1.78-0.38,2.34-1.13S48.84,64.77,48.84,63.28z"/>
		<path class="st0" d="M54.82,67.23l5.38-13.97h1.31l-5.4,13.97H54.82z"/>
		<path class="st0" d="M73.98,63.28c0,1.84-0.44,3.3-1.33,4.36s-2.08,1.6-3.56,1.6c-1.5,0-2.69-0.53-3.58-1.6
			c-0.88-1.07-1.33-2.52-1.33-4.36s0.44-3.3,1.33-4.37c0.88-1.07,2.08-1.6,3.58-1.6c1.49,0,2.68,0.54,3.56,1.6
			C73.53,59.99,73.98,61.44,73.98,63.28z M72.27,63.28c0-1.53-0.28-2.66-0.85-3.4c-0.56-0.74-1.35-1.11-2.35-1.11
			c-1.01,0-1.8,0.37-2.36,1.11s-0.84,1.88-0.84,3.4c0,1.48,0.28,2.6,0.85,3.36c0.56,0.76,1.35,1.14,2.36,1.14
			c1,0,1.78-0.38,2.34-1.13C71.99,65.9,72.27,64.77,72.27,63.28z"/>
		<path class="st0" d="M83.76,65.83c0,1.03-0.4,1.78-1.17,2.45c-0.77,0.66-1.84,0.94-3.17,0.94c-0.65,0-1.45-0.1-2.08-0.3
			c-0.63-0.2-1.16-0.42-1.58-0.65v-2.01c0,0,0.99,0.63,1.9,0.95c0.67,0.24,1.3,0.37,1.91,0.37c0.76,0,1.34-0.15,1.76-0.41
			c0.39-0.25,0.65-0.58,0.65-1.18c0-0.46-0.16-0.85-0.4-1.09c-0.24-0.24-0.69-0.45-1.37-0.62c-0.25-0.06-0.58-0.14-0.99-0.22
			c-0.4-0.08-0.78-0.17-1.11-0.27c-0.93-0.27-1.58-0.68-1.97-1.21c-0.39-0.53-0.58-1.01-0.58-1.75c0-0.47,0.12-0.91,0.3-1.32
			s0.44-0.78,0.8-1.1c0.35-0.32,0.79-0.57,1.32-0.75c0.53-0.19,1.13-0.28,1.79-0.28c0.62,0,1.24,0.08,1.88,0.25s1.16,0.37,1.58,0.6
			v1.82c0,0-0.72-0.46-1.55-0.76c-0.66-0.24-1.42-0.35-2.03-0.35c-0.64,0-1.17,0.13-1.61,0.4c-0.44,0.27-0.7,0.75-0.7,1.31
			c0,0.49,0.18,0.86,0.45,1.11c0.26,0.25,0.69,0.45,1.28,0.61c0.33,0.08,0.69,0.17,1.1,0.26c0.4,0.08,0.84,0.19,1.16,0.29
			c0.7,0.21,1.31,0.53,1.76,1.04C83.54,64.44,83.76,65.01,83.76,65.83z"/>
		<path class="st0" d="M94.31,68.97h-1.68v-0.18c-0.3,0.12-1.09,0.46-2.52,0.46c-0.68,0-2.14-0.13-3.17-1.1
			c-0.5-0.47-1.1-1.4-1.1-2.59c0-0.98,0.16-1.47,0.49-2.08c0.32-0.6,0.82-1.13,1.41-1.48c1.51-0.9,3.46-0.88,4.53-0.88
			c0.13,0,0.17,0,0.37,0v-0.41c0-0.38-0.07-0.69-0.2-0.93c-0.13-0.25-0.33-0.44-0.57-0.58c-0.24-0.14-0.52-0.23-0.86-0.27
			c-0.33-0.05-0.68-0.07-1.04-0.07c-0.44,0-1.05,0.07-1.6,0.19c-0.86,0.18-1.63,0.44-1.63,0.44v-1.64c0.33-0.09,0.8-0.18,1.42-0.29
			c0.62-0.11,1.23-0.16,1.83-0.16c0.7,0,1.32,0.06,1.84,0.17c0.52,0.12,0.97,0.31,1.35,0.59c0.38,0.27,0.66,0.62,0.86,1.05
			s0.29,0.96,0.29,1.6V68.97z M92.63,62.53c-0.54,0-1.34-0.01-1.97,0.06c-0.72,0.08-1.17,0.16-1.7,0.42
			c-0.46,0.23-1.39,0.89-1.39,2.23c0,1.79,1.39,2.32,2.09,2.4c1.24,0.16,2.55-0.24,2.97-0.67V62.53z"/>
		<path class="st0" d="M101.15,62.49l4.96,6.49h-2.14l-4.06-5.5l-1.09,1.02v4.48h-1.68V54.89h1.68v7.65l4.84-4.93h2.11L101.15,62.49
			z"/>
		<path class="st0" d="M115.76,68.97h-1.68v-0.18c-0.3,0.12-1.09,0.46-2.52,0.46c-0.68,0-2.14-0.13-3.17-1.1
			c-0.5-0.47-1.1-1.4-1.1-2.59c0-0.98,0.16-1.47,0.49-2.08c0.32-0.6,0.82-1.13,1.41-1.48c1.51-0.9,3.46-0.88,4.53-0.88
			c0.13,0,0.17,0,0.37,0v-0.41c0-0.38-0.07-0.69-0.2-0.93c-0.13-0.25-0.33-0.44-0.57-0.58c-0.24-0.14-0.52-0.23-0.86-0.27
			c-0.33-0.05-0.68-0.07-1.04-0.07c-0.44,0-1.05,0.07-1.6,0.19c-0.86,0.18-1.63,0.44-1.63,0.44v-1.64c0.33-0.09,0.8-0.18,1.42-0.29
			c0.62-0.11,1.23-0.16,1.83-0.16c0.7,0,1.32,0.06,1.84,0.17c0.52,0.12,0.97,0.31,1.35,0.59c0.38,0.27,0.66,0.62,0.86,1.05
			s0.29,0.96,0.29,1.6V68.97z M114.08,62.53c-0.54,0-1.34-0.01-1.97,0.06c-0.72,0.08-1.17,0.16-1.7,0.42
			c-0.46,0.23-1.39,0.89-1.39,2.23c0,1.79,1.39,2.32,2.09,2.4c1.24,0.16,2.55-0.24,2.97-0.67V62.53z"/>
		<path class="st0" d="M120.65,67.23l5.38-13.97h1.31l-5.4,13.97H120.65z"/>
		<path class="st0" d="M139.37,61.87c0,0.34,0,7.1,0,7.1h-1.68V63.2c0-1.48-0.03-2.64-0.65-3.34c-0.59-0.68-1.3-0.89-2.3-0.84
			c-0.75,0.04-1.58,0.33-1.97,0.5v9.45h-1.68V57.64h1.68v0.25c0.43-0.21,1.32-0.53,2.38-0.53
			C137.46,57.37,139.37,58.62,139.37,61.87z"/>
		<path class="st0" d="M149.85,68.97h-1.68v-0.18c-0.3,0.12-1.09,0.46-2.52,0.46c-0.68,0-2.14-0.13-3.17-1.1
			c-0.5-0.47-1.1-1.4-1.1-2.59c0-0.98,0.16-1.47,0.49-2.08c0.32-0.6,0.82-1.13,1.41-1.48c1.51-0.9,3.46-0.88,4.53-0.88
			c0.13,0,0.17,0,0.37,0v-0.41c0-0.38-0.07-0.69-0.2-0.93c-0.13-0.25-0.33-0.44-0.57-0.58c-0.24-0.14-0.52-0.23-0.86-0.27
			c-0.33-0.05-0.68-0.07-1.04-0.07c-0.44,0-1.05,0.07-1.6,0.19c-0.86,0.18-1.63,0.44-1.63,0.44v-1.64c0.33-0.09,0.8-0.18,1.42-0.29
			c0.62-0.11,1.23-0.16,1.83-0.16c0.7,0,1.32,0.06,1.84,0.17c0.52,0.12,0.97,0.31,1.35,0.59c0.38,0.27,0.66,0.62,0.86,1.05
			s0.29,0.96,0.29,1.6V68.97z M148.17,62.53c-0.54,0-1.34-0.01-1.97,0.06c-0.72,0.08-1.17,0.16-1.7,0.42
			c-0.46,0.23-1.39,0.89-1.39,2.23c0,1.79,1.39,2.32,2.09,2.4c1.24,0.16,2.55-0.24,2.97-0.67V62.53z"/>
		<path class="st0" d="M160.84,65.63v2.21c0,1.68-0.38,2.91-1.15,3.7s-1.94,1.18-3.53,1.18c-0.53,0-1.04-0.04-1.54-0.11
			c-0.5-0.07-0.99-0.18-1.48-0.32v-1.7c0,0,0.85,0.29,1.38,0.41c0.6,0.13,1.18,0.21,1.78,0.21c0.57,0,1.04-0.07,1.41-0.2
			c0.37-0.14,0.66-0.33,0.87-0.57c0.21-0.23,0.35-0.49,0.44-0.81c0.09-0.33,0.13-0.69,0.13-1.09v-0.21
			c-0.49,0.23-1.4,0.51-2.47,0.51c-2.36,0-3.78-1.34-4.32-3.18c-0.23-0.79-0.35-1.71-0.35-2.66c0-1.9,0.34-2.95,1.04-3.89
			c0.72-0.98,1.88-1.7,3.32-1.75c0.63-0.02,1.71,0.07,2.78,0.51v-0.23h1.68V65.63z M159.16,59.6c-0.4-0.24-1.22-0.61-2.51-0.57
			c-0.85,0.03-1.72,0.44-2.22,1.2c-0.38,0.57-0.66,1.32-0.66,2.7c0,1.42,0.22,2.59,0.88,3.32c0.62,0.68,1.39,0.95,2.44,0.91
			c0.79-0.03,1.6-0.3,2.07-0.47V59.6z"/>
		<path class="st0" d="M172.75,63.28c0,1.84-0.44,3.3-1.33,4.36s-2.07,1.6-3.56,1.6c-1.5,0-2.69-0.53-3.58-1.6
			c-0.88-1.07-1.33-2.52-1.33-4.36s0.44-3.3,1.33-4.37c0.88-1.07,2.08-1.6,3.58-1.6c1.49,0,2.68,0.54,3.56,1.6
			C172.31,59.99,172.75,61.44,172.75,63.28z M171.05,63.28c0-1.53-0.28-2.66-0.84-3.4c-0.56-0.74-1.35-1.11-2.35-1.11
			c-1.01,0-1.8,0.37-2.36,1.11c-0.56,0.74-0.84,1.88-0.84,3.4c0,1.48,0.28,2.6,0.84,3.36c0.56,0.76,1.35,1.14,2.36,1.14
			c0.99,0,1.78-0.38,2.34-1.13S171.05,64.77,171.05,63.28z"/>
		<path class="st0" d="M181.46,57.64h1.76l-6,13.92h-1.79l2.09-4.65l-3.98-9.27h1.82l3.04,7.27L181.46,57.64z"/>
		<path class="st0" d="M192.25,68.97h-1.68v-0.18c-0.3,0.12-1.09,0.46-2.53,0.46c-0.68,0-2.14-0.13-3.17-1.1
			c-0.5-0.47-1.1-1.4-1.1-2.59c0-0.98,0.16-1.47,0.49-2.08c0.32-0.6,0.82-1.13,1.41-1.48c1.51-0.9,3.47-0.88,4.53-0.88
			c0.12,0,0.17,0,0.37,0v-0.41c0-0.38-0.07-0.69-0.2-0.93c-0.13-0.25-0.32-0.44-0.57-0.58c-0.24-0.14-0.52-0.23-0.86-0.27
			c-0.33-0.05-0.68-0.07-1.04-0.07c-0.44,0-1.05,0.07-1.6,0.19c-0.86,0.18-1.63,0.44-1.63,0.44v-1.64c0.33-0.09,0.8-0.18,1.42-0.29
			s1.23-0.16,1.83-0.16c0.7,0,1.32,0.06,1.84,0.17c0.52,0.12,0.97,0.31,1.35,0.59c0.38,0.27,0.66,0.62,0.86,1.05
			c0.2,0.43,0.29,0.96,0.29,1.6V68.97z M190.57,62.53c-0.54,0-1.34-0.01-1.97,0.06c-0.73,0.08-1.17,0.16-1.7,0.42
			c-0.46,0.23-1.39,0.89-1.39,2.23c0,1.79,1.39,2.32,2.09,2.4c1.24,0.16,2.55-0.24,2.97-0.67V62.53z"/>
	</g>
	<g>
		<g>
			<g>
				<path class="st0" d="M20.22,0v6.92H15.8C2.71,6.92,0,16.71,0,23.75c0,5.17,1.55,9.65,4.38,12.61c2.43,2.55,5.69,3.88,9.43,3.88
					c2.53,0,4.63-0.46,6.41-1.4l0.05,0.71h8.64V0H20.22z M8.23,23.51c0-3.35,0.95-8.99,7.21-9.43c0.86-0.06,3.14-0.23,4.78-0.29
					c0,0.35,0,17.21,0,17.32c-1.14,0.77-2.9,1.35-4.9,1.4c-1.95,0.04-3.67-0.55-4.8-1.64l0,0C9.01,29.43,8.23,26.95,8.23,23.51z"/>
				<path class="st0" d="M51.46,32.59c-4.63-0.08-7.15-2.57-7.92-6.96c0.41,0,20.92,0,20.92,0l0.01-0.34
					c0.03-2.95-0.01-5.45-0.1-6.54c-0.33-3.71-1.68-6.83-3.9-9.01c-2.48-2.43-5.93-3.68-10.26-3.68c-5,0-9.13,1.85-11.92,5.34l0,0
					c-2.5,3.11-3.87,7.44-3.87,12.26c0,8,4.52,16.57,17.2,16.57c4.86,0,9.6-1.5,12.33-2.84v-8.02
					C62.44,30.19,57.8,32.69,51.46,32.59z M50.2,13.46c3.23,0,5.45,2.27,5.69,5.14c-0.35,0-11.75,0-12.2,0
					C44.57,15.48,46.73,13.46,50.2,13.46z"/>
				<path class="st0" d="M90.64,20.23v19.32h8.66v-20.6c0-8.61-3.98-12.8-12.16-12.8c-2.79,0-5.91,1.04-7.09,1.48L80,6.92h-8.64
					v32.63h8.68c0,0,0-24.26,0-24.44c1.86-1.17,4.79-1.65,7.13-1.11C89.51,14.53,90.64,16,90.64,20.23z"/>
				<path class="st0" d="M172.7,26.23V6.92h-8.68v20.59c0,8.62,4,12.82,12.18,12.82c2.81,0,5.91-1.06,7.1-1.49l0.04,0.71h8.63V6.92
					h-8.68c0,0,0,24.26,0,24.44c-1.85,1.17-4.78,1.66-7.13,1.12C173.84,31.94,172.7,30.46,172.7,26.23z"/>
				<g>
					<path class="st0" d="M106.63,0v28.31c0,3.92,0.67,6.65,2.11,8.57c1.72,2.29,4.49,3.38,8.48,3.38c3.22,0,6.33-0.7,8.12-1.27
						v-7.81c-1.12,0.28-4.55,1.02-6.54,1.02c-1.28,0-2.16-0.27-2.7-0.8c-0.81-0.8-0.81-2.17-0.81-3.51V14.1
						c3.43,0,7.68,0.23,10.04,0.5V6.92c0,0-9.72,0-10.04,0c0-0.32,0-6.92,0-6.92H106.63z"/>
				</g>
				<path class="st0" d="M156.66,23.72c-1.73-2.41-4.41-3.63-9.32-4.56c-2.04-0.38-4.43-0.8-5.84-1.56
					c-0.66-0.37-1.04-0.89-1.01-1.47c0.02-0.57,0.39-1.1,0.97-1.4c1.27-0.69,3.57-1.03,7.04-0.4c3.36,0.61,7.05,1.9,8.22,2.4V8.83
					c-4.02-2-7.59-2.78-11.6-2.7c-3.74,0.07-6.95,1.04-9.34,2.82c-2.51,1.88-3.91,4.59-4.06,7.81c-0.24,5.41,3.14,8.65,10.97,10.16
					c1.65,0.33,3.99,0.82,5.01,1.24c1.03,0.41,1.61,1.08,1.61,1.84c0.02,0.73-0.51,1.41-1.32,1.76c-1.47,0.62-3.83,0.52-5.37,0.37
					c-4.47-0.45-8.75-2.04-10.31-2.74v8.1c2.66,1.35,6.82,2.9,11.78,2.81c5.69-0.1,12.73-1.78,14.02-9.28
					C158.57,28.22,158.08,25.71,156.66,23.72z"/>
			</g>
		</g>
	</g>
</g>
</svg>
