<svg xmlns="http://www.w3.org/2000/svg" width="459.15" height="50" viewBox="0 0 459.15 50"><g transform="translate(-69.023 -443.759)"><g transform="translate(69.023 443.759)"><path d="M119.021,489.026a4.732,4.732,0,0,1-4.733,4.733H73.76a4.735,4.735,0,0,1-4.737-4.733V448.5a4.739,4.739,0,0,1,4.737-4.737h40.527a4.736,4.736,0,0,1,4.733,4.737Z" transform="translate(-69.023 -443.759)" fill="#00347a"/><path d="M114.486,469.9a14.971,14.971,0,1,1-14.97-14.973A14.971,14.971,0,0,1,114.486,469.9Z" transform="translate(-74.596 -447.769)" fill="#fff"/><path d="M113.91,465.025a34.573,34.573,0,0,0-13.313-2.386A36.189,36.189,0,0,0,87.1,464.9a14.557,14.557,0,0,1,13.214-8.983A14.918,14.918,0,0,1,113.91,465.025Z" transform="translate(-75.514 -448.126)" fill="#00347a"/><path d="M96.741,474.408c0,4.934.57,10.843,3.046,15.463a13.9,13.9,0,0,1-11.546-6.058,14.666,14.666,0,0,1-1.882-13.021A40.177,40.177,0,0,0,96.741,474.408Z" transform="translate(-74.97 -453.465)" fill="#00347a"/><path d="M119.8,483.578c-3.111,4.2-6.762,6.318-11.444,6.318,2.237-4.343,3.041-10.61,3.041-15.429a40.1,40.1,0,0,0,10.237-3.59A14.4,14.4,0,0,1,119.8,483.578Z" transform="translate(-83.144 -453.496)" fill="#00347a"/><path d="M77.915,508.014H76.871v4.137H75.788v-4.137H74.719V507.3h3.2Z" transform="translate(-71.068 -466.571)" fill="#fff"/><path d="M80.9,510.285l.624-1.77.67,1.77ZM82.21,507.3H81.082l-1.808,4.855h.984l.4-1.158h1.784l.394,1.158h1.234Z" transform="translate(-72.704 -466.571)" fill="#fff"/><path d="M88.592,512.151H87.508V507.3h1.084Z" transform="translate(-75.66 -466.571)" fill="#fff"/><path d="M94.277,507.3l-1.283,2.8v2.055H92.12V510.2L90.814,507.3h1.012l.855,1.952.906-1.952Z" transform="translate(-76.847 -466.571)" fill="#fff"/><path d="M99.085,511.5c-1,0-1.315-1.075-1.315-1.74v-.12c0-.658.246-1.757,1.315-1.757,1,0,1.361,1.163,1.361,1.757v.131C100.447,510.392,100.041,511.5,99.085,511.5Zm2.627-1.922a2.357,2.357,0,0,0-.656-1.711,2.587,2.587,0,0,0-1.934-.675,2.719,2.719,0,0,0-1.984.667,2.3,2.3,0,0,0-.679,1.719v.275a2.124,2.124,0,0,0,.726,1.736,3.312,3.312,0,0,0,3.806,0,2.152,2.152,0,0,0,.72-1.751Z" transform="translate(-78.874 -466.534)" fill="#fff"/><path d="M124.8,511.5c-1,0-1.316-1.075-1.316-1.74v-.12c0-.658.249-1.757,1.316-1.757,1,0,1.363,1.163,1.363,1.757v.131C126.166,510.392,125.759,511.5,124.8,511.5Zm2.629-1.922a2.36,2.36,0,0,0-.656-1.711,2.586,2.586,0,0,0-1.932-.675,2.724,2.724,0,0,0-1.987.667,2.293,2.293,0,0,0-.676,1.719v.275a2.129,2.129,0,0,0,.722,1.736,3.322,3.322,0,0,0,3.812,0,2.163,2.163,0,0,0,.717-1.751Z" transform="translate(-88.109 -466.534)" fill="#fff"/><path d="M112.693,511.383a1.918,1.918,0,0,1-.781.58,3.376,3.376,0,0,1-1.34.228,2.527,2.527,0,0,1-1.795-.609,2.31,2.31,0,0,1-.652-1.776v-.265a2.185,2.185,0,0,1,.722-1.691,2.872,2.872,0,0,1,2.017-.658,3.97,3.97,0,0,1,.819.076,2.415,2.415,0,0,1,.489.148v.783c-.131-.048-.3-.1-.5-.163a2.621,2.621,0,0,0-.694-.087,1.558,1.558,0,0,0-1.118.4,1.744,1.744,0,0,0-.424,1.327v.067a2.049,2.049,0,0,0,.331,1.336,1.162,1.162,0,0,0,.91.368,1.769,1.769,0,0,0,.58-.089.7.7,0,0,0,.347-.207v-.982l.012-.65h1.077Z" transform="translate(-83.062 -466.534)" fill="#fff"/><path d="M118.451,509.123a.922.922,0,0,1-.584.142h-.307v-1.279h.374a.852.852,0,0,1,.517.135.536.536,0,0,1,.172.453v.127A.5.5,0,0,1,118.451,509.123Zm.083.648a1.61,1.61,0,0,0,.948-.506,1.045,1.045,0,0,0,.265-.665v-.262a1.027,1.027,0,0,0-.3-.741,1.46,1.46,0,0,0-1.037-.3h-1.822v4.855h.974v-2.193a3.176,3.176,0,0,1,.349-.025c.19.522.681,1.661.857,2.218h1.118C119.433,511.32,118.785,510.156,118.535,509.771Z" transform="translate(-86.1 -466.571)" fill="#fff"/><path d="M135.2,510.742a1.287,1.287,0,0,1-.491,1.071,3.264,3.264,0,0,1-3.137-.023,1.539,1.539,0,0,1-.488-1.234V507.3h1.29v3.179a1.024,1.024,0,0,0,2.047.027V507.3h.779Z" transform="translate(-91.305 -466.571)" fill="#fff"/><path d="M140.305,509.381a.557.557,0,0,1-.381.133h-.354V508h.3a.628.628,0,0,1,.449.133.535.535,0,0,1,.137.41v.464A.456.456,0,0,1,140.305,509.381Zm1.152-.831a1.47,1.47,0,0,0-.271-.877,1.122,1.122,0,0,0-.97-.377H138.59v4.855h.98v-1.968h.586a1.383,1.383,0,0,0,.967-.315,1.22,1.22,0,0,0,.335-.933Z" transform="translate(-94 -466.571)" fill="#fff"/><path d="M106.441,511.288h-.627l-.229-.227v-.628l.229-.228h.627l.228.228v.628Z" transform="translate(-82.15 -467.616)" fill="#fff"/><g transform="translate(51.144 45.014)"><path d="M148.816,514.835v-.847h4.091v.847h-1.525v4.139h-.993v-4.139Z" transform="translate(-148.816 -513.988)" fill="#00347a"/><path d="M156.874,513.988h1.4l1.09,3.655,1.04-3.655h1.4v4.986h-.92v-3.655l-1.017,3.655H158.81l-1.041-3.655v3.655h-.9Z" transform="translate(-151.709 -513.988)" fill="#00347a"/></g></g><g transform="translate(149.964 448.62)"><path d="M195.3,487.072q15.97-5.553,16.84-21.354H196.519V461.9h15.972v-9.2h3.819q1.733.351.174,1.389V461.9h16.666v3.819H216.832q3.646,14.412,17.708,20.486l-2.257,4.167q-12.154-5.555-17.187-18.75-2.954,14.237-18.229,19.618Z" transform="translate(-195.304 -451.829)" fill="#fff"/><path d="M279.474,477.308a104.522,104.522,0,0,1-5.208,12.847q.345,1.563-.695,1.042l-3.646-2.43a65.474,65.474,0,0,0,6.25-13.021Zm-6.423-13.715a19.529,19.529,0,0,1,5.9,4.341l-2.6,3.3a27.588,27.588,0,0,0-5.729-4.687Zm7.812-5.209-2.6,2.952a37.49,37.49,0,0,0-5.9-5.035l2.431-2.778A22.577,22.577,0,0,1,280.863,458.384Zm6.771-6.25A20.587,20.587,0,0,1,292.321,457l-2.256,2.257h5.208l3.819-7.639,3.646,1.736q.692.7-.521.868l-3.472,5.035h8.16v3.3H296.141v5.729h8.681v3.3h-8.681v6.25h13.195v3.3H296.141V491.2h-3.472V481.128H280.863v-3.3h11.805v-6.25h-8.68v-3.3h8.68v-5.729H281.732v-3.3h7.638a31.224,31.224,0,0,0-4.166-4.687Z" transform="translate(-222.096 -451.44)" fill="#fff"/><path d="M351.069,486.933V476.516l-3.82,1.563q-.175,1.391-.868.694l-1.563-4.341,6.25-1.736V462.628h-5.382v-3.3h5.382v-7.813l3.3.347q1.387.174.174,1.042v6.424H359.4v3.3h-4.861v9.028l5.035-1.91.695,3.125-5.73,2.431v13.368a2.457,2.457,0,0,1-2.778,2.777h-3.646l-.694-3.819h2.951A.614.614,0,0,0,351.069,486.933Zm21.875-28.125h10.764v3.3H372.944v6.6H377.8l.521-1.042,3.125,1.909-.521.695q-2.258,7.812-5.9,12.153a33.281,33.281,0,0,0,10.417,4.687l-1.563,4.167a33.8,33.8,0,0,1-11.458-5.9q-4.688,3.991-13.021,6.25l-1.562-3.994q7.982-2.083,11.632-5.034A27.16,27.16,0,0,1,364.611,472h-3.125v-3.3h7.986v-6.6h-8.681v-3.3h8.681v-7.465l3.3.347q1.387.175.174,1.042ZM368.083,472a23.478,23.478,0,0,0,4.166,8.16,25.966,25.966,0,0,0,4.167-8.16Z" transform="translate(-248.986 -451.343)" fill="#fff"/><path d="M422.65,459.149v-3.3h16.319v3.3h-7.292a33.882,33.882,0,0,1-2.083,9.028h8.68v17.708h-8.68v3.472h-3.472V474.08a7.588,7.588,0,0,1-2.6,3.125l-1.909-3.646q5.553-4.858,6.6-14.409ZM434.8,471.475h-5.208v11.111H434.8Zm9.722,1.736h-4.861v-3.3h4.861V458.975h-3.646v-3.3h19.27v3.3h-3.993v10.937h5.382v3.3h-5.382v19.1h-3.472v-19.1H448v2.951q0,10.766-10.591,16.667l-2.431-3.472q9.546-4.688,9.549-13.542Zm8.159-14.236H448v10.937h4.687Z" transform="translate(-276.556 -452.899)" fill="#fff"/><path d="M508.076,491.447H504.6V473.739a26,26,0,0,1-5.035,8.16l-2.256-3.646a27.993,27.993,0,0,0,7.117-14.583H498.7v-3.82h5.9v-8.507h3.3q1.387.35.174,1.042v7.465h4.861v3.82h-4.861V468.7a23.976,23.976,0,0,1,5.9,5.382l-2.6,3.3a25.526,25.526,0,0,0-3.3-4.514Zm18.576-32.291h7.986v3.819h-7.986v5.381H537.59v3.82H527q3.125,5.558,11.805,10.764l-2.083,3.993a40.538,40.538,0,0,1-10.07-9.722v14.236H523.18V477.558a32.476,32.476,0,0,1-10.069,10.59l-1.91-3.472a40.4,40.4,0,0,0,11.806-12.5H512.937v-3.82H523.18v-5.381h-4.861a18.6,18.6,0,0,1-2.952,4.687l-2.778-2.952q3.125-3.3,5.035-9.9l3.472.868q1.041.52-.347.868l-.869,2.6h3.3v-7.813h3.3q1.388.175.174,1.042Z" transform="translate(-303.737 -451.343)" fill="#fff"/><path d="M608.093,485.585q.691,0,.868-1.042l.347-2.951,3.819,1.736-.694,4.166q-.521,2.95-3.125,2.951-5.209,0-8.854-7.117-3.476-6.772-3.646-19.1H575.455v-3.819h21.18v-7.986h3.819q1.732.351.174,1.389v6.6h12.153v3.819H600.628q.691,12.154,3.472,17.187Q606.355,485.585,608.093,485.585Zm-10.764-1.042q-9.726,2.083-19.619,3.819-.349,1.562-1.215.347l-.869-4.34q4.338-.347,8.507-1.042v-9.9h-6.944v-3.3h17.187v3.3h-6.771v9.375q3.991-.521,9.2-1.563Zm7.986-31.249a20.415,20.415,0,0,1,4.687,3.3l-3.125,2.6a20.838,20.838,0,0,0-4.514-3.3Z" transform="translate(-331.794 -451.732)" fill="#fff"/><path d="M685.485,469.072a31.656,31.656,0,0,1-7.813-3.472v3.646H658.055v-3.472a30.505,30.505,0,0,1-8.854,4.514l-1.563-4.167a28.021,28.021,0,0,0,18.056-14.236l3.645.52q1.388.175.174,1.042,5.553,8.333,17.708,11.458Zm-7.118,18.4-25.173,2.777q-.871.867-1.563.347l-1.215-4.34,7.118-.347,4.861-8.854h-12.5v-3.82h35.591v3.82h-18.75l-5.208,8.68,14.236-1.042a64.736,64.736,0,0,0-5.035-4.167l3.125-2.083q8.333,6.25,11.458,10.417l-3.645,2.257A24.064,24.064,0,0,0,678.367,487.475Zm-1.042-22.048a25.362,25.362,0,0,1-9.9-9.9,33.661,33.661,0,0,1-8.854,9.9Z" transform="translate(-357.71 -451.538)" fill="#fff"/><path d="M734.259,459.621h3.646l.695-.695,2.6,2.6-1.215.868a52.126,52.126,0,0,1-5.73,8.507,29.371,29.371,0,0,1,7.639,3.646l-1.909,3.82a39.959,39.959,0,0,0-5.73-3.993v17.187h-3.472V474.378a39.414,39.414,0,0,1-6.424,4.687l-1.563-3.472a32.65,32.65,0,0,0,13.021-12.674H724.364v-3.3h6.424v-7.465h3.3q1.386.174.173,1.042Zm19.1-5.035v9.2h7.986v3.82h-7.986v18.056h9.549v3.819H739.12v-3.819h10.243V467.607H741.9v-3.82h7.465V453.2h3.82Q754.917,453.548,753.356,454.586Z" transform="translate(-384.697 -451.635)" fill="#fff"/></g></g></svg>