<?xml version="1.0" encoding="utf-8"?>
<!-- Generator: Adobe Illustrator 27.5.0, SVG Export Plug-In . SVG Version: 6.00 Build 0)  -->
<svg version="1.0" xmlns="http://www.w3.org/2000/svg" xmlns:xlink="http://www.w3.org/1999/xlink" x="0px" y="0px"
	 viewBox="0 0 70.9 70.9" enable-background="new 0 0 70.9 70.9" xml:space="preserve">
<g id="レイヤー_2">
</g>
<g id="レイヤー_1">
	<path fill="#004471" d="M60.4,10.4C53.5,3.5,45.1,0,35.4,0c-9.8,0-18.1,3.5-25,10.4C3.4,17.4,0,25.8,0,35.5c0,9.7,3.5,18,10.4,25
		c6.9,7,15.3,10.4,24.9,10.4c9.8,0,18.1-3.5,25.1-10.4c6.9-6.9,10.4-15.3,10.4-25.1C70.9,25.8,67.4,17.4,60.4,10.4z M58.4,58.5
		c-6.4,6.3-14.1,9.5-23,9.5c-8.9,0-16.5-3.2-22.9-9.6c-6.4-6.4-9.6-14-9.6-22.9c0-9,3.2-16.7,9.5-23.1c6.3-6.4,14-9.6,23-9.6
		c9,0,16.6,3.2,23,9.6c6.4,6.4,9.6,14.1,9.6,23.1C67.9,44.5,64.8,52.2,58.4,58.5z M57.7,13.2C51.5,7,44.1,3.9,35.4,3.9
		c-8.7,0-16.1,3.1-22.3,9.3C7,19.4,3.9,26.8,3.9,35.5c0,8.6,3.1,16.1,9.3,22.2c6.2,6.2,13.6,9.3,22.2,9.3c8.7,0,16.1-3.1,22.3-9.2
		c6.2-6.2,9.3-13.6,9.3-22.3C67,26.8,63.9,19.4,57.7,13.2z M65.3,27.4c0.4,1.4-3.4,3.7-8.6,5.1c-0.1-0.8-0.2-1.5-0.4-2.2
		c1.2-0.3,5.5-1.5,5.6-1.5c0.3-0.1,0.4-0.3,0.3-0.6c-0.1-0.3-0.3-0.4-0.6-0.3c-0.1,0-4.4,1.2-5.6,1.5c-0.2-0.7-0.4-1.4-0.7-2.1
		C60.5,25.9,64.9,26,65.3,27.4z M55.1,35.5c0,5.4-2,10-5.9,13.8c-3.9,3.8-8.5,5.8-13.9,5.8c-5.4,0-10-1.9-13.8-5.8
		c-3.8-3.8-5.8-8.4-5.8-13.8c0-5.4,1.9-10,5.8-13.8c3.8-3.8,8.4-5.8,13.8-5.8c5.5,0,10.2,1.9,14,5.8C53.2,25.5,55.1,30.1,55.1,35.5z
		 M62.2,20c0.7,1.3-2.3,4.5-6.9,7.1c-0.3-0.7-0.6-1.4-1-2c1.1-0.6,5-2.9,5-2.9c0.2-0.1,0.3-0.4,0.2-0.7c-0.1-0.2-0.4-0.3-0.7-0.2
		c-0.1,0-4,2.3-5,2.9c-0.4-0.6-0.8-1.2-1.3-1.8C57.1,19.8,61.4,18.7,62.2,20z M57.3,13.5c1,1-1.1,4.9-4.9,8.7
		c-0.5-0.6-0.9-1.1-1.5-1.7c0.8-0.8,4.1-4.1,4.1-4.1c0.2-0.2,0.2-0.5,0-0.7c-0.2-0.2-0.5-0.2-0.7,0c-0.1,0.1-3.3,3.3-4.1,4.1
		c-0.5-0.5-1.1-1-1.7-1.5C52.3,14.7,56.2,12.5,57.3,13.5z M50.8,8.6c1.3,0.7,0.2,5.1-2.4,9.7c-0.6-0.5-1.2-0.9-1.8-1.3
		c0.6-1.1,2.9-5,2.9-5c0.1-0.2,0.1-0.5-0.2-0.7c-0.2-0.1-0.5-0.1-0.7,0.2c0,0.1-2.3,3.9-2.9,5c-0.7-0.4-1.3-0.7-2-1
		C46.4,11,49.6,7.9,50.8,8.6z M43.4,5.5c1.4,0.4,1.5,4.8,0.2,9.9c-0.7-0.3-1.4-0.5-2.1-0.7c0.3-1.2,1.5-5.5,1.5-5.6
		c0.1-0.3-0.1-0.5-0.3-0.6C42.3,8.5,42,8.6,42,8.9c0,0.1-1.2,4.4-1.5,5.6c-0.7-0.2-1.5-0.3-2.2-0.4C39.7,9,41.9,5.2,43.4,5.5z
		 M35.4,4.5c1.5,0,2.7,4.3,2.7,9.6c-0.7-0.1-1.5-0.1-2.2-0.1V8.1c0-0.3-0.2-0.5-0.5-0.5c-0.3,0-0.5,0.2-0.5,0.5v5.8
		c-0.8,0-1.5,0.1-2.2,0.1C32.7,8.8,33.9,4.5,35.4,4.5z M27.3,5.6c1.4-0.4,3.7,3.4,5.1,8.6c-0.8,0.1-1.5,0.2-2.2,0.4
		c-0.3-1.2-1.5-5.5-1.5-5.6c-0.1-0.3-0.3-0.4-0.6-0.3c-0.3,0.1-0.4,0.3-0.3,0.6c0,0.1,1.2,4.3,1.5,5.6c-0.7,0.2-1.4,0.4-2.1,0.7
		C25.9,10.3,25.9,5.9,27.3,5.6z M19.9,8.7c1.3-0.7,4.4,2.3,7.1,6.9c-0.7,0.3-1.4,0.6-2,1c-0.7-1.1-2.8-4.9-2.9-5
		c-0.1-0.2-0.4-0.3-0.7-0.2c-0.2,0.1-0.3,0.4-0.2,0.7c0,0.1,2.2,3.9,2.9,5c-0.6,0.4-1.2,0.8-1.8,1.3C19.7,13.7,18.6,9.4,19.9,8.7z
		 M13.5,13.6c1-1,4.9,1.1,8.7,4.8c-0.6,0.5-1.1,0.9-1.7,1.5c-0.9-0.9-4-4-4.1-4.1c-0.2-0.2-0.5-0.2-0.7,0c-0.2,0.2-0.2,0.5,0,0.7
		c0.1,0.1,3.2,3.2,4.1,4.1c-0.5,0.5-1,1.1-1.5,1.7C14.6,18.5,12.4,14.6,13.5,13.6z M8.5,20c0.7-1.3,5-0.2,9.6,2.4
		c-0.5,0.6-0.9,1.2-1.3,1.8c-1.2-0.7-4.9-2.8-5-2.9c-0.2-0.1-0.5-0.1-0.7,0.2c-0.1,0.2-0.1,0.5,0.2,0.7c0.1,0,3.8,2.2,5,2.9
		c-0.4,0.7-0.7,1.3-1,2C10.9,24.4,7.8,21.3,8.5,20z M5.5,27.5c0.4-1.4,4.8-1.5,9.9-0.2c-0.3,0.7-0.5,1.4-0.7,2.1
		c-1.3-0.4-5.5-1.5-5.5-1.5c-0.3-0.1-0.5,0.1-0.6,0.3c-0.1,0.3,0.1,0.5,0.3,0.6c0.1,0,4.3,1.1,5.5,1.5c-0.2,0.7-0.3,1.5-0.4,2.2
		C8.9,31.2,5.1,28.9,5.5,27.5z M4.4,35.5c0-1.5,4.2-2.7,9.5-2.7c-0.1,0.7-0.1,1.5-0.1,2.2c-1.3,0-5.7,0-5.8,0
		c-0.3,0-0.5,0.2-0.5,0.5C7.5,35.8,7.7,36,8,36c0.1,0,4.5,0,5.8,0c0,0.8,0.1,1.5,0.1,2.2C8.6,38.2,4.4,37,4.4,35.5z M5.5,43.5
		c-0.4-1.4,3.4-3.7,8.5-5.1c0.1,0.8,0.2,1.5,0.4,2.2C13,41,8.9,42.1,8.8,42.1c-0.3,0.1-0.4,0.3-0.3,0.6C8.5,43,8.8,43.1,9.1,43
		c0.1,0,4.2-1.1,5.5-1.5c0.2,0.7,0.4,1.4,0.7,2.1C10.2,45,5.8,44.9,5.5,43.5z M8.6,51c-0.7-1.3,2.3-4.4,6.8-7.1c0.3,0.7,0.6,1.4,1,2
		c-1.2,0.7-4.9,2.8-4.9,2.9c-0.2,0.1-0.3,0.4-0.2,0.7c0.1,0.2,0.4,0.3,0.7,0.2c0.1,0,3.8-2.2,4.9-2.9c0.4,0.6,0.8,1.2,1.3,1.8
		C13.6,51.2,9.3,52.2,8.6,51z M13.5,57.4c-1-1,1.1-4.9,4.8-8.6c0.5,0.6,0.9,1.1,1.5,1.7c-0.9,0.9-4,4-4.1,4.1
		c-0.2,0.2-0.2,0.5,0,0.7c0.2,0.2,0.5,0.2,0.7,0c0.1-0.1,3.1-3.1,4.1-4.1c0.5,0.5,1.1,1,1.7,1.5C18.4,56.3,14.5,58.4,13.5,57.4z
		 M19.9,62.3c-1.3-0.7-0.2-5,2.4-9.6c0.6,0.5,1.2,0.9,1.8,1.3c-0.7,1.2-2.8,4.9-2.9,4.9c-0.1,0.2-0.1,0.5,0.2,0.7
		c0.2,0.1,0.5,0.1,0.7-0.2c0-0.1,2.2-3.7,2.8-4.9c0.7,0.4,1.3,0.7,2,1C24.3,60,21.2,63,19.9,62.3z M27.4,65.4
		c-1.4-0.4-1.5-4.8-0.2-9.8c0.7,0.3,1.4,0.5,2.1,0.7c-0.4,1.3-1.5,5.4-1.5,5.5c-0.1,0.3,0.1,0.5,0.3,0.6c0.3,0.1,0.5-0.1,0.6-0.3
		c0-0.1,1.1-4.2,1.5-5.5c0.7,0.2,1.5,0.3,2.2,0.4C31.1,62,28.8,65.8,27.4,65.4z M35.4,66.4c-1.5,0-2.7-4.2-2.7-9.5
		c0.7,0.1,1.5,0.1,2.2,0.1c0,1.3,0,5.7,0,5.8c0,0.3,0.2,0.5,0.5,0.5c0.3,0,0.5-0.2,0.5-0.5c0-0.1,0-4.5,0-5.8c0.8,0,1.5-0.1,2.2-0.2
		C38.1,62.2,36.9,66.4,35.4,66.4z M43.4,65.4c-1.4,0.4-3.7-3.4-5.1-8.5c0.8-0.1,1.5-0.2,2.2-0.4c0.3,1.3,1.5,5.5,1.5,5.5
		c0.1,0.3,0.3,0.4,0.6,0.3c0.3-0.1,0.4-0.3,0.3-0.6c0-0.1-1.1-4.2-1.5-5.5c0.7-0.2,1.4-0.4,2.1-0.7C44.9,60.6,44.8,65,43.4,65.4z
		 M50.9,62.3c-1.3,0.7-4.4-2.3-7.1-6.9c0.7-0.3,1.4-0.6,2-1c0.7,1.2,2.8,4.9,2.9,5c0.1,0.2,0.4,0.3,0.7,0.2c0.2-0.1,0.3-0.4,0.2-0.7
		c0-0.1-2.2-3.8-2.9-5c0.6-0.4,1.2-0.8,1.8-1.3C51.1,57.3,52.2,61.5,50.9,62.3z M57.3,57.4c-1,1-4.9-1.1-8.7-4.8
		c0.6-0.5,1.1-1,1.7-1.5c0.9,0.9,4,4,4.1,4.1c0.2,0.2,0.5,0.2,0.7,0c0.2-0.2,0.2-0.5,0-0.7c-0.1-0.1-3.2-3.2-4.1-4.1
		c0.5-0.6,1-1.1,1.5-1.7C56.2,52.4,58.3,56.3,57.3,57.4z M62.2,50.9c-0.7,1.3-5,0.2-9.6-2.4c0.5-0.6,0.9-1.2,1.3-1.8
		c1.1,0.7,4.9,2.8,5,2.9c0.2,0.1,0.5,0.1,0.7-0.2c0.1-0.2,0.1-0.5-0.2-0.7c-0.1,0-3.9-2.2-5-2.9c0.4-0.7,0.7-1.3,1-2
		C59.9,46.5,62.9,49.7,62.2,50.9z M65.3,43.5c-0.4,1.4-4.8,1.5-9.9,0.2c0.3-0.7,0.5-1.4,0.7-2.1c1.2,0.3,5.5,1.5,5.6,1.5
		c0.3,0.1,0.5-0.1,0.6-0.3c0.1-0.3-0.1-0.5-0.3-0.6c-0.1,0-4.4-1.2-5.6-1.5c0.2-0.7,0.3-1.5,0.4-2.2C61.9,39.8,65.7,42,65.3,43.5z
		 M56.7,38.2c0.1-0.7,0.1-1.5,0.1-2.2c1.2,0,5.8,0,5.9,0c0.3,0,0.5-0.2,0.5-0.5c0-0.3-0.2-0.5-0.5-0.5c-0.1,0-4.7,0-5.9,0
		c0-0.8-0.1-1.5-0.2-2.2c5.3,0,9.6,1.2,9.6,2.7C66.4,36.9,62.1,38.1,56.7,38.2z"/>
	<g>
		<g>
			<path fill="#B60005" d="M48.3,22.6c-3.6-3.5-7.9-5.3-13-5.3c-5,0-9.2,1.8-12.8,5.3c-3.6,3.5-5.3,7.8-5.3,12.9
				c0,5.1,1.8,9.4,5.3,12.9c3.6,3.5,7.8,5.3,12.8,5.3c5.1,0,9.5-1.8,13-5.3c3.6-3.5,5.3-7.8,5.3-12.9C53.6,30.5,51.8,26.1,48.3,22.6
				z M28,22.5c0.1-0.7,0.4-1.1,1.2-1.9c0.6-0.6,3-2.8,6.3-2.8c3.2,0,5.6,2.1,6.1,2.7c0.9,0.9,1.1,1.3,1.2,2c0.2,0.7,0,1.4-0.6,2.4
				c-0.2,0.4-1.9,2.8-2.8,4c-0.1,0.1-0.3,0.2-0.4,0.1c-0.2-0.1-0.5-0.3-0.7-0.4c-0.1,0-0.1-0.3-0.1-0.4c0.6-1.9,1.3-4.4,1.4-4.5
				c0.1-0.3-0.1-0.6-0.4-0.7c-0.3-0.1-0.6,0.1-0.7,0.4c0,0.1-0.8,2.6-1.4,4.5c0,0.1-0.2,0.3-0.3,0.3c-0.2,0-0.3-0.1-0.5-0.1
				c-0.1,0-0.2-0.2-0.2-0.4c0-1.6,0-5.3,0-6c0.3-0.2,0.4-0.6,0.4-0.9c0-0.7-0.6-1.2-1.2-1.2c-0.7,0-1.2,0.6-1.2,1.2
				c0,0.4,0.2,0.8,0.5,1c0,0.9,0,4.5,0,6c0,0.1-0.1,0.3-0.2,0.3c-0.1,0-0.3,0-0.4,0.1c-0.1,0-0.3-0.2-0.3-0.3
				c-0.6-1.9-1.3-4.4-1.4-4.5c-0.1-0.3-0.4-0.5-0.7-0.4c-0.3,0.1-0.5,0.4-0.4,0.7c0,0.1,0.8,2.6,1.4,4.5c0,0.1-0.1,0.4-0.1,0.4
				c-0.2,0.1-0.4,0.2-0.6,0.3c-0.1,0-0.4,0-0.5-0.1c-0.9-1.3-2.5-3.7-2.7-4C28.1,24,27.9,23.2,28,22.5z M19.3,36.9
				c-0.4-0.7-1.7-3.7-0.7-6.9c1-3.1,3.7-4.6,4.4-5c1.1-0.6,1.6-0.6,2.3-0.5c0.8,0.1,1.4,0.5,2.1,1.3c0.3,0.3,2.1,2.7,3,3.9
				c0.1,0.1,0.1,0.4,0,0.4c-0.2,0.2-0.4,0.4-0.6,0.6c0,0.1-0.3,0-0.4,0c-1.6-1.1-3.8-2.6-3.9-2.7c-0.3-0.2-0.6-0.1-0.8,0.1
				c-0.2,0.3-0.1,0.6,0.1,0.8c0.1,0.1,2.3,1.6,3.9,2.7c0.1,0.1,0.2,0.3,0.2,0.3c-0.1,0.1-0.1,0.3-0.2,0.4c0,0.1-0.3,0.1-0.4,0
				c-1.5-0.5-5-1.6-5.7-1.9c-0.1-0.3-0.4-0.6-0.8-0.7c-0.7-0.2-1.4,0.1-1.6,0.8c-0.2,0.7,0.1,1.4,0.8,1.6c0.4,0.1,0.8,0,1.1-0.2
				c0.8,0.3,4.3,1.4,5.7,1.8c0.1,0,0.3,0.2,0.3,0.3c0,0.1,0,0.3-0.1,0.4c0,0.1-0.2,0.2-0.3,0.2c-2,0-4.6-0.1-4.7-0.1
				c-0.3,0-0.6,0.2-0.6,0.6c0,0.3,0.2,0.6,0.6,0.6c0.1,0,2.8,0.1,4.7,0.1c0.1,0,0.4,0.2,0.4,0.3c0,0.2,0.1,0.5,0.1,0.7
				c0,0.1-0.2,0.4-0.3,0.4c-1.5,0.5-4.3,1.3-4.6,1.4c-1.1,0.3-1.9,0.3-2.6,0C20.1,38.2,19.8,37.8,19.3,36.9z M34.6,48
				c0,1.1-0.3,1.9-0.8,2.4c-0.5,0.5-1,0.7-2.1,0.9c-0.8,0.2-4,0.5-6.8-1.5c-2.6-1.9-3.3-5-3.4-5.8c-0.2-1.2-0.1-1.7,0.2-2.3
				c0.3-0.7,0.9-1.2,1.9-1.6c0.4-0.2,3.2-1.1,4.6-1.6c0.1,0,0.4,0,0.4,0.1c0.1,0.3,0.2,0.5,0.4,0.7c0,0.1-0.1,0.3-0.1,0.4
				c-1.6,1.2-3.7,2.8-3.8,2.9c-0.3,0.2-0.3,0.5-0.1,0.8c0.2,0.3,0.5,0.3,0.8,0.1c0.1-0.1,2.2-1.7,3.8-2.9c0.1-0.1,0.3-0.1,0.4-0.1
				c0.1,0.1,0.2,0.2,0.3,0.3c0,0,0,0.3-0.1,0.4c-0.9,1.3-3.1,4.3-3.5,4.8c-0.4,0-0.7,0.2-0.9,0.5c-0.4,0.6-0.3,1.3,0.3,1.7
				c0.6,0.4,1.3,0.3,1.7-0.3c0.3-0.3,0.3-0.8,0.2-1.2c0.5-0.7,2.6-3.6,3.5-4.8c0.1-0.1,0.3-0.2,0.4-0.2c0.1,0.1,0.2,0.1,0.3,0.2
				c0.1,0,0.1,0.3,0.1,0.4c-0.7,1.9-1.5,4.4-1.6,4.5c-0.1,0.3,0.1,0.6,0.4,0.7c0.3,0.1,0.6-0.1,0.7-0.3c0-0.1,0.9-2.6,1.6-4.5
				c0-0.1,0.3-0.3,0.4-0.3c0.2,0.1,0.5,0.1,0.7,0.1c0.1,0,0.3,0.3,0.3,0.4C34.7,44.8,34.6,47.6,34.6,48z M28.9,35.5
				c0-3.6,2.9-6.6,6.6-6.6c3.6,0,6.6,2.9,6.6,6.6c0,3.6-2.9,6.6-6.6,6.6C31.8,42.1,28.9,39.1,28.9,35.5z M49.3,43.9
				c-0.1,0.8-0.8,4-3.5,6c-2.6,1.9-5.8,1.6-6.5,1.4c-1.2-0.2-1.6-0.4-2.2-0.9c-0.6-0.5-0.8-1.2-0.9-2.3c0-0.4-0.1-3.4-0.1-4.9
				c0-0.1,0.2-0.3,0.2-0.4c0.3,0,0.5-0.1,0.8-0.1c0.1,0,0.3,0.2,0.3,0.3c0.7,1.9,1.5,4.4,1.6,4.5c0.1,0.3,0.4,0.5,0.7,0.3
				c0.3-0.1,0.5-0.4,0.3-0.7c0-0.1-0.9-2.6-1.6-4.5c0-0.1,0-0.4,0-0.4c0.1-0.1,0.3-0.1,0.4-0.2c0.1,0,0.3,0.1,0.4,0.2
				c0.9,1.3,3.1,4.3,3.5,4.8c-0.1,0.3,0,0.7,0.2,1c0.4,0.6,1.2,0.7,1.7,0.3c0.6-0.4,0.7-1.2,0.3-1.7c-0.3-0.3-0.6-0.5-1-0.5
				c-0.5-0.7-2.6-3.6-3.5-4.8c-0.1-0.1-0.1-0.3,0-0.4c0.1-0.1,0.2-0.2,0.3-0.3c0.1-0.1,0.3,0,0.4,0c1.6,1.2,3.7,2.8,3.8,2.9
				c0.2,0.2,0.6,0.1,0.8-0.1c0.2-0.2,0.1-0.6-0.1-0.8c-0.1-0.1-2.2-1.7-3.8-2.9c-0.1-0.1-0.2-0.4-0.1-0.4c0.1-0.2,0.2-0.4,0.3-0.6
				c0-0.1,0.3-0.2,0.5-0.2C44,39,46.7,40,47,40.1c1.1,0.4,1.7,0.9,2,1.5C49.4,42.3,49.4,42.8,49.3,43.9z M50.1,38.5
				c-0.7,0.4-1.4,0.4-2.5,0.2c-0.4-0.1-3.3-0.9-4.7-1.4c-0.1,0-0.3-0.3-0.3-0.3c0.1-0.3,0.1-0.5,0.1-0.8c0-0.1,0.2-0.2,0.3-0.2
				c2,0,4.6-0.1,4.7-0.1c0.3,0,0.6-0.3,0.6-0.6c0-0.3-0.3-0.6-0.6-0.6c-0.1,0-2.8,0.1-4.7,0.1c-0.1,0-0.3-0.1-0.3-0.2
				c0-0.2,0-0.3-0.1-0.5c0-0.1,0.2-0.2,0.3-0.3c1.5-0.5,5-1.6,5.7-1.9c0.3,0.2,0.7,0.2,1,0.1c0.7-0.2,1-0.9,0.8-1.6
				c-0.2-0.7-0.9-1-1.6-0.8c-0.4,0.1-0.7,0.5-0.8,0.8c-0.8,0.3-4.3,1.4-5.7,1.8c-0.1,0-0.4,0-0.4-0.1C42,32.3,42,32.2,41.9,32
				c0-0.1,0.1-0.3,0.2-0.4c1.6-1.1,3.8-2.6,3.9-2.7c0.3-0.2,0.3-0.5,0.1-0.8c-0.2-0.3-0.5-0.3-0.8-0.1c-0.1,0.1-2.3,1.6-3.9,2.7
				c-0.1,0.1-0.4,0.1-0.4,0c-0.2-0.2-0.3-0.4-0.5-0.5c-0.1-0.1-0.1-0.4,0-0.5c0.9-1.3,2.7-3.5,2.9-3.8c0.7-0.9,1.3-1.4,2.1-1.5
				c0.7-0.1,1.2,0,2.2,0.5c0.8,0.4,3.6,2,4.6,5.2c1,3.1-0.3,6-0.6,6.7C51.1,37.9,50.7,38.2,50.1,38.5z M35.5,30.7
				c-2.7,0-4.8,2.2-4.8,4.8c0,2.7,2.2,4.8,4.8,4.8c2.7,0,4.8-2.2,4.8-4.8C40.3,32.8,38.1,30.7,35.5,30.7z"/>
		</g>
	</g>
</g>
</svg>
