<?xml version="1.0" encoding="utf-8"?>
<!-- Generator: Adobe Illustrator 27.5.0, SVG Export Plug-In . SVG Version: 6.00 Build 0)  -->
<svg version="1.1" id="レイヤー_1" xmlns="http://www.w3.org/2000/svg" xmlns:xlink="http://www.w3.org/1999/xlink" x="0px"
	 y="0px" viewBox="0 0 717.9 485.3" style="enable-background:new 0 0 717.9 485.3;" xml:space="preserve">
<style type="text/css">
	.st0{fill:#E60012;}
</style>
<path d="M65.2,359.2c18.7-16.4,27.5-37,19.6-45.9c-7.8-8.9-29.4-2.8-48.1,13.6c-18.7,16.4-27.5,37-19.6,45.9
	C25,381.7,46.5,375.6,65.2,359.2z"/>
<path d="M311.2,240.1c-12.1-30.7-47.3-52.9-88.9-52.9c-41.6,0-76.9,22.2-88.9,52.9c-2.9,7.3-4.5,15.2-4.5,23.3v161.4H201v-87.1V279
	c0-12.7,9.5-22.9,21.3-22.9c11.7,0,21.3,10.3,21.3,22.9v58.6v87.1h72.1V263.4C315.7,255.2,314.1,247.4,311.2,240.1z"/>
<path class="st0" d="M117.8,399.2c22-18.3,32.4-42,23.2-53c-9.1-11-34.4-5.1-56.4,13.1c-22,18.3-32.4,42-23.2,53
	C70.5,423.4,95.8,417.5,117.8,399.2z"/>
<path d="M51.9,298.6c18.8-15,28.1-34.7,20.7-44c-7.4-9.3-28.7-4.7-47.5,10.3c-18.8,15-28.1,34.7-20.7,44
	C11.8,318.1,33.1,313.5,51.9,298.6z"/>
<path d="M85,224.9c18.8-15,28.1-34.7,20.7-44c-7.4-9.3-28.7-4.7-47.5,10.3c-18.8,15-28.1,34.7-20.7,44
	C44.9,244.4,66.1,239.8,85,224.9z"/>
<path d="M150.4,159.5c18.2-13.1,26.8-32.2,19.3-42.6c-7.5-10.4-28.4-8.3-46.5,4.9c-18.2,13.1-26.8,32.2-19.3,42.6
	C111.4,174.8,132.3,172.6,150.4,159.5z"/>
<path d="M227.3,105.8c18.4-12.3,27.4-30.9,20.3-41.6c-7.2-10.7-27.8-9.4-46.2,2.9C183,79.4,173.9,98,181.1,108.7
	C188.2,119.4,208.9,118.1,227.3,105.8z"/>
<path d="M312.1,71.2c18.3-11.5,27.3-30,20.2-41.3c-7.1-11.3-27.7-11.1-46,0.4c-18.3,11.5-27.3,30-20.2,41.3
	C273.3,82.9,293.9,82.7,312.1,71.2z"/>
<path d="M392.9,48.9C410.3,38,418.5,20,411.4,8.7C404.3-2.6,384.5-2.9,367.1,8c-17.3,10.9-25.6,28.9-18.5,40.2
	C355.8,59.5,375.6,59.8,392.9,48.9z"/>
<path d="M462.3,47.1c15.1-11.7,21.4-28.7,14.2-38c-7.2-9.3-25.3-7.3-40.3,4.4c-15.1,11.7-21.4,28.7-14.2,38
	C429.1,60.8,447.2,58.8,462.3,47.1z"/>
<path d="M507,63.1c12.5-11.8,17.6-26.6,11.5-33.1c-6.1-6.5-21.3-2.3-33.7,9.5c-12.5,11.8-17.6,26.6-11.5,33.1
	C479.4,79.2,494.5,74.9,507,63.1z"/>
<path d="M526.7,95.5c9.4-9.4,13.1-21.1,8.2-26c-4.9-4.9-16.6-1.3-26,8.2c-9.4,9.4-13.1,21.1-8.2,26
	C505.6,108.6,517.2,105,526.7,95.5z"/>
<path d="M524.9,134.2c7.1-7.1,9.6-16.2,5.5-20.3c-4.1-4.1-13.2-1.6-20.3,5.5c-7.1,7.1-9.6,16.2-5.5,20.3
	C508.7,143.7,517.8,141.3,524.9,134.2z"/>
<path d="M508.9,166.8c5.8-5.8,7.7-13.1,4.4-16.4c-3.3-3.3-10.7-1.3-16.4,4.4c-5.8,5.8-7.7,13.1-4.4,16.4
	C495.7,174.5,503.1,172.5,508.9,166.8z"/>
<path d="M487.3,195.7c5.1-5.1,6.9-11.7,3.9-14.6c-2.9-2.9-9.5-1.2-14.6,3.9c-5.1,5.1-6.9,11.7-3.9,14.6
	C475.6,202.5,482.1,200.8,487.3,195.7z"/>
<path d="M408.7,192.7c-46.6,0-84.3,33.7-84.3,75.3v156.7h65.6v-83.3V270c0-9.1,7.3-16.5,17.4-16.5c10.2,0,17.4,7.4,17.4,16.5
	c0,9-7.1,16.3-17.1,16.5v56.9c46.6,0,85.3-33.7,85.3-75.3C493,226.4,455.3,192.7,408.7,192.7z"/>
<path d="M660.6,190.7c-23,0-42.9,15.8-52,38.6c-9.1-22.8-28.9-38.6-52-38.6c-31.6,0-57.3,29.8-57.3,66.6v167.5h55.5V323.8v-62.9
	c0-5.7,5.2-10.4,11.7-10.4s11.7,4.6,11.7,10.4v58v105.8H639V319v-58c0-5.7,5.2-10.4,11.7-10.4s11.7,4.6,11.7,10.4v62.9v100.9h55.5
	V257.3C717.9,220.5,692.2,190.7,660.6,190.7z"/>
<g>
	<path d="M0,438.3h8.6l20.1,31v-31h9v47.1h-8.6L9,454.5v30.9H0V438.3z"/>
	<path d="M47.8,438.3h8.9v47.1h-8.9V438.3z"/>
	<path d="M66.7,438.3h9.1V456h15.7v-17.8h9.1v47.1h-9.1v-20.6H75.8v20.6h-9.1V438.3z"/>
	<path d="M133.6,437.1c6.7,0,12.4,2.4,17.2,7.2c4.8,4.8,7.2,10.7,7.2,17.6c0,6.9-2.4,12.7-7.1,17.4c-4.7,4.8-10.5,7.1-17.2,7.1
		c-7.1,0-12.9-2.4-17.6-7.3c-4.7-4.9-7-10.7-7-17.4c0-4.5,1.1-8.6,3.3-12.4c2.2-3.8,5.2-6.8,9-9
		C125.1,438.2,129.2,437.1,133.6,437.1z M133.5,445.9c-4.4,0-8,1.5-11,4.5c-3,3-4.5,6.9-4.5,11.6c0,5.2,1.9,9.3,5.6,12.4
		c2.9,2.4,6.2,3.6,10,3.6c4.2,0,7.9-1.5,10.9-4.6c3-3.1,4.5-6.9,4.5-11.4c0-4.5-1.5-8.3-4.5-11.4
		C141.4,447.4,137.8,445.9,133.5,445.9z"/>
	<path d="M166.4,438.3h8.6l20.1,31v-31h9v47.1h-8.6l-20.1-30.9v30.9h-9V438.3z"/>
	<path d="M233.2,438.3h9.5c5.1,0,8.8,0.5,11.1,1.4c2.3,0.9,4.1,2.5,5.4,4.6c1.3,2.1,2,4.7,2,7.6c0,3.3-0.9,6-2.6,8.2
		c-1.7,2.2-4,3.7-7,4.5c-1.7,0.5-4.9,0.7-9.4,0.7v19.9h-9V438.3z M242.1,456.7h2.8c2.2,0,3.8-0.2,4.7-0.5c0.9-0.3,1.6-0.9,2.1-1.6
		c0.5-0.7,0.8-1.6,0.8-2.7c0-1.8-0.7-3.1-2.1-4c-1-0.6-2.9-0.9-5.7-0.9h-2.5V456.7z"/>
	<path d="M270.5,438.3h9.5c5.2,0,8.9,0.5,11.1,1.4c2.2,0.9,4,2.5,5.3,4.6c1.3,2.2,2,4.7,2,7.6c0,3.1-0.7,5.7-2.2,7.8
		c-1.5,2.1-3.7,3.7-6.7,4.7l11.1,20.9h-9.8l-10.6-19.9h-0.8v19.9h-9V438.3z M279.5,456.7h2.8c2.8,0,4.8-0.4,5.9-1.1
		c1.1-0.7,1.6-2,1.6-3.7c0-1-0.3-1.9-0.8-2.7c-0.5-0.8-1.2-1.3-2.1-1.6c-0.9-0.3-2.5-0.5-4.9-0.5h-2.5V456.7z"/>
	<path d="M330.1,437.1c6.7,0,12.4,2.4,17.2,7.2c4.8,4.8,7.2,10.7,7.2,17.6c0,6.9-2.4,12.7-7.1,17.4c-4.7,4.8-10.5,7.1-17.2,7.1
		c-7.1,0-12.9-2.4-17.6-7.3c-4.7-4.9-7-10.7-7-17.4c0-4.5,1.1-8.6,3.3-12.4c2.2-3.8,5.2-6.8,9-9
		C321.6,438.2,325.7,437.1,330.1,437.1z M330,445.9c-4.4,0-8,1.5-11,4.5c-3,3-4.5,6.9-4.5,11.6c0,5.2,1.9,9.3,5.6,12.4
		c2.9,2.4,6.2,3.6,10,3.6c4.2,0,7.9-1.5,10.9-4.6c3-3.1,4.5-6.9,4.5-11.4c0-4.5-1.5-8.3-4.5-11.4C338,447.4,334.3,445.9,330,445.9z"
		/>
	<path d="M385.8,438.3h8.7l10.9,32.8l11-32.8h8.7l7.9,47.1h-8.7l-5-29.7l-10,29.7h-7.9l-9.9-29.7l-5.2,29.7h-8.7L385.8,438.3z"/>
	<path d="M454.6,438.3h9.1l18.1,47.1h-9.3l-3.7-9.7h-19.2l-3.8,9.7h-9.3L454.6,438.3z M459.2,450.8l-6.3,16.2h12.6L459.2,450.8z"/>
	<path d="M488.7,438.3h9.1V456h15.7v-17.8h9.1v47.1h-9.1v-20.6h-15.7v20.6h-9.1V438.3z"/>
	<path d="M545,438.3h9v31.2c0,5-0.4,8.5-1.2,10.5c-0.8,2-2.1,3.6-3.9,4.8c-1.8,1.2-4,1.8-6.5,1.8c-5.2,0-9.6-2.3-13.2-6.8l6.5-6
		c1.4,1.6,2.6,2.7,3.6,3.3c1,0.6,2,0.8,2.9,0.8c1,0,1.7-0.4,2.1-1.2c0.5-0.8,0.7-2.6,0.7-5.3V438.3z"/>
	<path d="M586.9,437.1c6.7,0,12.4,2.4,17.2,7.2c4.8,4.8,7.2,10.7,7.2,17.6c0,6.9-2.4,12.7-7.1,17.4c-4.7,4.8-10.5,7.1-17.2,7.1
		c-7.1,0-12.9-2.4-17.6-7.3c-4.7-4.9-7-10.7-7-17.4c0-4.5,1.1-8.6,3.3-12.4c2.2-3.8,5.2-6.8,9-9
		C578.4,438.2,582.6,437.1,586.9,437.1z M586.9,445.9c-4.4,0-8,1.5-11,4.5c-3,3-4.5,6.9-4.5,11.6c0,5.2,1.9,9.3,5.6,12.4
		c2.9,2.4,6.2,3.6,10,3.6c4.2,0,7.9-1.5,10.9-4.6c3-3.1,4.5-6.9,4.5-11.4c0-4.5-1.5-8.3-4.5-11.4
		C594.8,447.4,591.2,445.9,586.9,445.9z"/>
	<path d="M619.8,438.3h8.6l20.1,31v-31h9v47.1h-8.6l-20.1-30.9v30.9h-9V438.3z"/>
	<path d="M711.7,446l-6.3,6.2c-4-4.2-8.6-6.3-14-6.3c-4.6,0-8.5,1.5-11.6,4.6c-3.1,3.1-4.7,6.8-4.7,11.2c0,4.5,1.6,8.4,4.9,11.6
		c3.2,3.2,7.2,4.7,12,4.7c3.1,0,5.7-0.7,7.8-2c2.1-1.3,3.8-3.3,5.1-6.1h-13.6v-8.4H715l0.1,2c0,4.1-1.1,8-3.2,11.7
		c-2.1,3.7-4.9,6.5-8.3,8.4c-3.4,1.9-7.4,2.9-11.9,2.9c-4.9,0-9.2-1.1-13.1-3.2c-3.8-2.1-6.9-5.1-9.1-9.1c-2.2-3.9-3.3-8.2-3.3-12.7
		c0-6.2,2.1-11.6,6.2-16.3c4.9-5.5,11.2-8.2,19.1-8.2c4.1,0,7.9,0.8,11.5,2.3C705.9,440.6,708.8,442.8,711.7,446z"/>
</g>
</svg>
