<?xml version="1.0" encoding="utf-8"?>
<!-- Generator: Adobe Illustrator 25.0.1, SVG Export Plug-In . SVG Version: 6.00 Build 0)  -->
<svg version="1.1" id="_x32_" xmlns="http://www.w3.org/2000/svg" xmlns:xlink="http://www.w3.org/1999/xlink" x="0px" y="0px"
	 viewBox="0 0 512 512" style="enable-background:new 0 0 512 512;" xml:space="preserve">
<style type="text/css">
	.st0{fill:none;}
	.st1{fill:none;stroke:#CCCCCC;stroke-width:29;stroke-miterlimit:10;}
	.st2{fill:#CCCCCC;}
</style>
<polygon class="st0" points="459,53 459,53 459,53 "/>
<path class="st1" d="M448.1,212.3c0-19.1-3.7-38.1-10.9-55.9c-7.2-17.8-18-34.5-32.6-49.1C390,92.8,373.3,82,355.5,74.8
	c-17.8-7.2-36.8-10.8-55.9-10.9c-19.1,0-38.1,3.7-55.9,10.9c-17.8,7.2-34.5,18-49.1,32.6c-14.6,14.6-25.4,31.3-32.6,49.1
	c-7.2,17.8-10.8,36.7-10.9,55.9c0,19.1,3.7,38.1,10.9,55.9c7.2,17.8,18,34.5,32.6,49.1c14.6,14.6,31.3,25.4,49.1,32.6
	c17.8,7.2,36.7,10.8,55.9,10.9c19.1,0,38.1-3.7,55.9-10.9c17.8-7.2,34.5-18,49-32.6c14.6-14.6,25.4-31.3,32.6-49.1
	C444.4,250.4,448,231.5,448.1,212.3z"/>
<path class="st2" d="M381.1,15.4C355.8,5.2,328.9,0,302.1,0L302,0v0l0,0l0,0l-0.1,0c-26.8,0-53.7,5.2-79,15.4
	c-25.3,10.3-49,25.6-69.4,46.1l0,0c-20.5,20.4-35.8,44.1-46.1,69.4C97.1,156.1,92,183,92,209.7l0,0.2v0v0l0,0.3
	c0,37.3,10.3,74.7,30.2,107.9l5.5,9.2L11.8,443.2c-4,4-6.9,8.5-8.9,13.3c-2,4.8-2.9,10-2.9,15.2c0,5.2,1,10.3,2.9,15.2
	c2,4.8,4.9,9.4,8.9,13.3l0,0c4,4,8.5,6.9,13.3,8.9c4.8,2,10,2.9,15.2,2.9c5.2,0,10.3-1,15.2-2.9c4.8-2,9.4-4.9,13.3-8.9l0,0
	l115.9-115.9l9.2,5.5c33.2,20,70.6,30.2,107.8,30.2l0.3,0h0h0l0.2,0c26.8,0,53.6-5.2,78.9-15.4c25.3-10.3,48.9-25.6,69.4-46.1l0,0
	c20.5-20.4,35.8-44.1,46.1-69.4c10.3-25.3,15.4-52.2,15.4-78.9V210v0l0-0.2c0-26.7-5.2-53.6-15.4-78.9
	c-10.3-25.3-25.6-48.9-46.1-69.4l0,0C430,41,406.3,25.7,381.1,15.4z M453,210L453,210L453,210c0,19.4-3.7,38.7-11.1,56.9
	c-7.4,18.2-18.4,35.2-33.2,50l0,0C394,331.6,377,342.6,358.8,350c-18.2,7.4-37.5,11-56.8,11.1l0,0l0,0c-19.4,0-38.6-3.7-56.8-11.1
	c-18.2-7.4-35.2-18.4-50-33.2l0,0l0,0c-14.7-14.8-25.8-31.8-33.2-50c-7.4-18.2-11-37.5-11.1-56.8v0v0c0-19.3,3.7-38.6,11.1-56.8
	c7.4-18.2,18.4-35.2,33.2-50l0,0C210,88.5,227,77.4,245.1,70c18.2-7.4,37.5-11,56.8-11.1l0,0l0,0c19.4,0,38.6,3.7,56.8,11.1
	c18.2,7.4,35.2,18.4,50,33.2l0,0c14.7,14.8,25.8,31.8,33.2,50C449.3,171.3,453,190.6,453,210z"/>
</svg>
